<?xml version="1.0" encoding="utf-8"?>
<!-- Generator: Adobe Illustrator 17.0.0, SVG Export Plug-In . SVG Version: 6.00 Build 0)  -->
<!DOCTYPE svg PUBLIC "-//W3C//DTD SVG 1.1//EN" "http://www.w3.org/Graphics/SVG/1.1/DTD/svg11.dtd">
<svg version="1.1" id="Слой_1" xmlns="http://www.w3.org/2000/svg" xmlns:xlink="http://www.w3.org/1999/xlink" x="0px" y="0px"
	 width="158.3px" height="158.3px" viewBox="0 0 158.3 158.3" style="enable-background:new 0 0 158.3 158.3;" xml:space="preserve"
	>
<style type="text/css">
	.st0{fill:#F5E712;}
	.st1{fill:none;stroke:#E95117;stroke-width:5;stroke-miterlimit:10;}
	.st2{fill:#1E1E1C;}
	.st3{fill:#209DD9;}
	.st4{fill:#FFFFFF;}
	.st5{fill:none;stroke:#12100D;stroke-width:0.216;stroke-miterlimit:2.414;}
	.st6{fill:none;stroke:#1E1E1C;stroke-width:0.567;stroke-miterlimit:2.414;}
</style>
<path class="st0" d="M155.9,79.1c0,42.5-34.4,76.9-76.9,76.9S2.2,121.6,2.2,79.1c0-42.5,34.4-76.9,76.9-76.9S155.9,36.7,155.9,79.1"
	/>
<circle class="st1" cx="79.1" cy="79.1" r="76.9"/>
<path class="st2" d="M107.9,49.9c-0.8,0-1,1.3-1.6,1.3c-0.6-0.1-1.3-1.1-2.8-1.1c-1.5,0-2.9,0.3-3-0.8c-0.1-1.1-1.1-1.6-1.8-1.6
	c-0.7,0.1,0.2,0.9,0,0.9c-0.2,0.1-1.5-0.1-1.3,0.7c0.3,0.7,0.4,1.4,1.1,1.2c0.7-0.2,1.1-0.2,1.8-0.1c0.7,0.1,2.7,0,3.6,0.4
	c1,0.4,1,0.6,0.9,1c-0.1,0.4-1.5,0.7-2,0.8c-0.6,0-0.8,0.7-1.4,0.7s-2.7,0.1-4,0c-1.2-0.1-4.5-0.4-4.7,0.2c-0.2,0.6,0.2,0.8-0.2,1.2
	c-0.4,0.4-2.2,0.8-2.4,1.3c-0.2,0.5,1.7-0.5,2.6-0.8c0.9-0.3,4.9-1.1,6.1-1.1c1.2,0,3.2,0.2,3.2,0.2s-0.5,0.6,0.2,0.7
	c0.7,0.1,1.7,0,2.4-0.6c0.7-0.6,0.8-1.1,0.7-1.2c-0.2-0.1,0.8-0.3,1.8,0.4c1,0.7,2.4,0.5,2.6,0c0.2-0.5,0.5-0.9,0.9-0.7
	c0.4,0.1,1.5,1.1,2,0.9c0.5-0.2,0.4-0.6,0.6-0.5c0.2,0.1,0.2,0.9,1.2,0.9c0.9,0,0.9-1,1.1-1c0.3,0.1,1.1,1,1.4,1.4
	c0.3,0.4,0.7-0.3,0.7-0.3s3.9,1,4.3,1.1c0,0,0.2-0.9-0.2-0.9c-0.4,0-1.1,0.1-1.6-0.2c-0.6-0.3-0.7-0.9-1.6-0.8c-0.8,0-1.4,0.1-2-0.5
	c-0.6-0.6-0.5-1-1.1-1c-0.6,0-1.6,0.5-1.9,0.5c-0.3,0-0.8-1.3-1.5-1.4c-0.7-0.1-1.4,0.7-1.8,0.7C109.8,51.4,108.6,49.9,107.9,49.9"
	/>
<path class="st2" d="M44.4,55.9c0.3,0.6,1.3,0.5,1.7,1.1c0,0.3,0,0.6-0.2,0.8c0.7-0.2,1.1-0.7,1.5-1.2c-0.2-0.1-0.5-0.2-0.5-0.6
	c1.1-0.5,2.6-0.7,3.3-1.5C49.8,54,49,54,48.5,53.6c0.6-0.2,1.2-0.4,1.8-0.6c-0.2-0.8-1.6-0.5-2.1-1.1c0.5-0.2,1.4,0,1.7-0.5
	c-0.5-0.1-1.1,0-1.2-0.5c0.8-0.1,1.9-0.1,2.4-0.5c-0.4-1.1-2.1-1-2.9-1.8c1.2,0,2.9,0.7,3.8,0.2c-0.6-0.8-1.7-0.9-2.1-1.8
	c1.4,0.3,2.6,0.8,4.1,0.9c-0.2-0.7-0.8-0.9-1.4-1.2c-0.2-0.5-0.8-0.5-0.9-1.1c0.7-0.3,1.6,0.3,2.7,0.2c-0.5-1.7-2.9-2.3-3.3-3.6
	c1.3,0.3,2,1.3,3.6,1.4c-0.3-1.2-1.3-1.7-1.5-3c1.2-0.1,1.5,0.7,2.7,0.6c-0.1-1.3-1.2-1.6-1.5-2.7c1.2,0.1,1.7,0.8,3,0.8
	c0-1.5-1.9-1.8-1.7-3c1.3,0.1,2.7,1.6,3.6,1.2c-0.2-0.5-0.8-1.4-0.5-1.8c0.9,0.3,1.4,0.9,2.6,0.9c0-1.2-0.9-1.5-1.1-2.6
	c0.3-0.3,0.4,0,0.8,0v-0.2c-0.7-0.3-1.1-0.8-2.1-0.8c-0.1,1.2,1.2,1.7,1.1,2.4c-0.8,0-1.4-0.9-2-0.6c0.1,0.3,0.4,1.1,0,1.4
	c-1.3-0.2-1.9-1.3-3.6-1.1c-0.2,1.3,1,1.2,0.9,2.4c-1.3,0.2-1.6-0.6-2.9-0.5c0,1.1,1,1.3,1.1,2.4c-1.2,0.1-1.8-0.6-2.9-0.6
	c-0.3,1.1,1.3,1.5,1.5,2.6c-1,0-1.9-0.9-2.9-0.5c0.1,1.1,1.1,2,1.2,2.6c-0.7-0.2-1.3-0.6-2.3-0.5c0.3,1.4,1.6,1.9,2.3,3
	c-0.8-0.3-1.9-0.3-3-0.3c-0.5,0.9,1.2,1.6,1.1,2.1c-1-0.2-2-0.4-3.3-0.3c0.6,1.4,2.5,1.5,3.5,2.4c-1,0.5-1.7-0.3-2.6,0.2
	c0.7,0.4,1.6,0.6,2.1,1.2c-0.9,0-1.5,0.3-2.4,0.3c0.2,0.8,1.8,0.2,2.1,0.9c-0.6,0.3-1.7,0.3-2.3,0.6c0.7,0.3,1.7,0.3,1.8,1.2
	C46.8,55.2,44.8,54.7,44.4,55.9"/>
<path class="st2" d="M58.8,39.7c1.2,2.7-2.2,3-3.3,4.4c0.3,0.6,1.3,0.6,1.7,1.2c-0.2,0.3-1.2-0.1-1.1,0.6c0.8-0.2,2.1,0,2.4-0.8
	c-0.2-0.4-0.8,0.2-0.9-0.2c0.5-0.4,1.6-1.2,0.6-1.7c0.8-0.3,1.8-0.4,2.3-1.1c-0.1-0.2-0.6,0-0.6-0.3c0.5-0.4,1.3-0.4,1.7-0.9
	c-0.7-0.2-1.4-0.3-1.7-0.9c0.6-0.6,1.3-1,2.1-1.4C60.8,38.5,59,38.6,58.8,39.7"/>
<path class="st2" d="M54.9,50.3c0.2-0.6,0.9-0.6,1.2-1.1c-0.2-0.1-0.3-0.2-0.3-0.5c0.6-0.3,1.4-0.4,1.7-1.1
	c-0.1-0.4-0.8-0.4-1.1-0.6c0.4-0.7,1.4-0.7,1.8-1.4c-1.6,0.2-2.9,0.7-3.5,2c0.3,0.2,1,0,1.2,0.3C55.3,48.4,54.3,49.3,54.9,50.3"/>
<path class="st2" d="M55.2,55c-0.5-0.2-1.2-0.3-1.4-0.9c2.8-0.6,5.9-2.3,5-5.6c0,0.9-0.4,1.4-0.6,2.1c-1.3,2.3-5.4,1.8-7.2,3.5
	C52,54.8,54.1,56.1,55.2,55"/>
<path class="st2" d="M61.2,50.6c0.1-0.3,0.3-0.6,0.5-0.9c-0.9,0.3-1.6,0.7-1.8,1.7c0.7,0.6,2.4,0.2,3,0.8c-0.8,0.9-3.4,0.2-3.6,1.7
	c2-0.6,3.9-1.1,5.9-1.7C64.9,50.5,61.8,51.8,61.2,50.6"/>
<path class="st2" d="M63.6,55.6c0.6-0.2,1.2-0.3,1.4-0.9c-0.4-0.9-2-0.6-2.7-1.1c0.8-0.3,3.1-0.6,2.6-1.2c-1.6,0.7-3.7,0.8-5.1,1.7
	c0.6,0.3,1.7,0.2,2,0.9c-0.9,0-1.7,0-2.4,0.2c0.3,1.2,2.1,0.9,3,1.5c-1,0.4-1.8,0.9-2.4,1.7c0.2,0.3,0.8,0.2,1.1,0.5
	c-0.6,0.3-1,0.7-1.4,1.2c1.3-0.4,2.4-1,3.2-2c-0.3-0.1-0.8-0.1-0.9-0.3c0.6-0.6,1.7-0.9,2.4-1.4C64.3,55.8,63.6,56,63.6,55.6"/>
<path class="st2" d="M49,63c0.1,0.5,0.9,0.4,1.1,0.9c1.5-0.7,3.2-1.3,4.7-2.1c-1-0.3-2.2-0.5-2.9-1.1c0.6-0.8,2.7,0,3.2-0.9
	c-0.6-0.3-1.2-0.7-1.4-1.5h1.5c0.1-0.9-0.7-1-0.8-1.7c0.4-0.3,1.3-0.8,0.9-1.4c-0.6,0.4-1.4,0.7-1.8,1.4c-0.2,0.7,0.5,0.5,0.5,1.1
	c-1,0.1-1.6,0.5-2.3,0.9c-0.2,0.7,0.9,0.7,0.5,1.2c-1.3,0.1-2.5,0.2-2.9,1.2c0.2,0.6,0.9,0.7,1.4,0.9C50.1,62.3,49,62.1,49,63"/>
<path class="st2" d="M40.7,70.7c3.3,0.3,6.2-1.1,7.4-3.5c-0.9-0.4-2.1,0.8-3.2,0.2c0.5-1.1,1.7-1.5,2.4-2.4c-0.8,0-1.5-0.2-2-0.6
	c0.9-0.4,2.3-0.4,2.7-1.2c-0.9-0.7-2.4-0.7-3.6-1.1c-0.4-0.6,0.8-0.7,1.1-1.1h0.2c1.1-0.2,1.9-0.6,2.4-1.4c-1.2-0.5-3.1,0.9-3.9,0
	c0.1-0.9,0.7-1.2,0.8-2.1c-1.3,0.6-2.9,2.5-1.8,4.1c0,0.4-0.6,0.3-0.6,0.8c0.5,0.5,1.2,0.6,1.4,1.4c-0.4,0.1-0.7,0.4-1.1,0.6
	c-0.4,1.3,0.3,2.5,0,3.8C41.9,68.8,40.9,69.3,40.7,70.7"/>
<path class="st2" d="M59.5,64.2c0.8-0.3,1.2-1,1.1-1.8c-0.1-0.3-0.5-0.4-0.5-0.6c0.3-0.8,1.3-0.4,1.5-1.4c-0.9,0-1.5-0.9-2.1,0
	c0.3,0,0.4,0.1,0.5,0.3c-0.4,0.2-0.7,0.6-1.2,0.8C59.4,62.2,60.3,62.9,59.5,64.2"/>
<path class="st2" d="M51.5,70.4c-0.5-1.3-1.8-2.5-1.5-4.1c1.3-0.4,3.3-0.1,3.8-1.4c-0.3-0.9-1.2-1.2-2-1.7c-0.4,0.3-1,0.4-1.4,0.8
	c0.6,0.1,1,0.4,1.4,0.8c-1.3,0-2.3-0.3-3.2,0.3C48.5,67.4,50.2,69.1,51.5,70.4"/>
<path class="st2" d="M57,68.7c-0.3-1.1-0.6-2-0.2-3.2c-2.7-0.7-1.8,2.6-2.4,4.2C55.3,69.4,56.5,69.8,57,68.7"/>
<path class="st2" d="M62.7,74.7c-0.5-1.3-2.3-1.2-3.2-2.1c0-1.8,1.4-3.8,0.2-5.1h-0.5c0,0.2-0.2,0.2-0.2,0.5c-0.7,1.9-2,2.3-2.6,3.8
	c-1.2,3.2,2.3,4.8,1.4,8.3C61,81.5,63,78.2,62.7,74.7"/>
<path class="st2" d="M51.5,70.4C51.6,70.6,51.7,70.4,51.5,70.4"/>
<path class="st2" d="M44.9,79.9c1.2,0.3,3.1,0.2,3.8-0.5c1.3-2.4-0.5-4.9-1.5-6.3c-0.3-0.7,0-2-0.9-2.1c-1.6,1-2.4,2.8-2.4,5.4
	c0.3,1,1.6,1.1,2,2C45.7,79.1,44.9,79,44.9,79.9"/>
<path class="st2" d="M52.1,86.4c1.1-1.3,1.9-2.8,2.9-4.2c-0.3-1.4-0.1-3.3-0.6-4.5C50,76.3,48.7,85.3,52.1,86.4"/>
<path class="st2" d="M68.3,78.5c-0.1,0.2-0.3,0.4-0.3,0.7c-0.1,0.7,0.8,1.3,0.8,1.3c0.6,0,1-0.8,0.8-1.1c0,0,0,0,0,0
	c-0.1-0.2-0.4-0.4-0.5-0.7c0-0.1,0-0.2,0-0.3c0-0.1,0-0.1,0-0.2C68.8,78,68.5,78.2,68.3,78.5"/>
<path class="st2" d="M66.5,81.7c-0.6-0.7-0.6-1.5-0.6-2.4C61.9,78.1,64.3,85,66.5,81.7"/>
<path class="st2" d="M69.6,80.8c-0.1,0.1-0.1,0.3-0.2,0.4c-0.1,0.2-0.2,0.4-0.2,0.8c-0.1,0.9,1.5,1.1,1.5,1.1s0-0.1,0-0.3l0,0
	c-0.1-0.2-0.1-0.4-0.1-0.6c0.1-0.1,0.2-0.3,0.1-0.5c0-0.1,0-0.1,0-0.2c0-0.1,0.1-0.2,0.2-0.2C70.5,81.2,70.2,80.9,69.6,80.8"/>
<path class="st2" d="M67.7,89.5c1.1-1.2,2-2.6,3.3-3.6c-2.4-1.8-5.1,0.9-5.7,3.2C65.7,89.6,66.7,89.6,67.7,89.5"/>
<path class="st2" d="M59.5,110.2C59.6,110.3,59.5,110.1,59.5,110.2"/>
<path class="st2" d="M59.8,110.5C59.9,110.6,59.8,110.4,59.8,110.5"/>
<path class="st2" d="M113.2,48.7c-0.1-0.5-0.9-1.2-2.9-0.1c0,0,0.8,1,1.7,1C112.9,49.5,113.3,49.2,113.2,48.7"/>
<path class="st2" d="M108.5,47.1c-0.7,0-1.3,0.7-1.3,0.7s0.3,0.9,1.1,0.9c0.8,0.1,1.1-0.7,1.1-0.7C109.5,47.4,109.2,47.1,108.5,47.1
	"/>
<path class="st2" d="M103.5,46.5c0,0,0.4,1.3,1.4,1.5c1,0.2,2-0.4,2-0.4s-0.4-1.7-1.5-1.7C104.2,45.7,103.5,46.5,103.5,46.5"/>
<path class="st2" d="M101.6,45.4c-1.5,0-1.4,0.9-1.4,0.9s0.6,0.4,1.6,0.4c0.9,0,1.3-0.5,1.3-0.5S103.1,45.4,101.6,45.4"/>
<path class="st2" d="M111.7,41.4c-0.7,0-3-0.4-3-0.4s1.5,1.1,3,1.1c1.6,0.1,3.3-0.2,3.3-0.6c0-0.3-0.7-0.5-1.2-0.5
	C113.4,41.2,112.3,41.5,111.7,41.4"/>
<path class="st2" d="M117.6,41.2c-0.5,0.1-1,0.3-1.5,0.5c-0.5,0.3-0.9,0.6-1.2,1c0.4-0.3,0.8-0.6,1.3-0.8c0.5-0.2,1-0.4,1.5-0.4
	c0.5-0.1,1,0,1.5,0.1c0.5,0.1,1,0.2,1.5,0.3c0.5,0.1,1,0.2,1.5,0.3c0.5,0.1,1.1,0.2,1.6,0.1c1.1-0.2,2-0.6,3-1
	c-0.5,0.2-1,0.3-1.5,0.5c-0.5,0.1-1,0.2-1.5,0.3c-0.5,0-1,0-1.5-0.1c-0.5-0.1-1-0.2-1.5-0.3c-0.5-0.1-1-0.2-1.5-0.3
	c-0.3,0-0.5-0.1-0.8-0.1C118.1,41.2,117.9,41.2,117.6,41.2"/>
<path class="st2" d="M126.6,40.9c-0.2-0.1-0.4-0.3-0.6-0.4l-0.6-0.4c-0.4-0.3-0.8-0.5-1.2-0.8c-0.8-0.5-1.7-1-2.6-1.4
	c-0.5-0.2-0.9-0.4-1.4-0.5c-0.5-0.1-1-0.3-1.4-0.4c-1.9-0.5-3.8-1-5.6-1.8c-0.4-0.2-0.9-0.4-1.3-0.7c-0.4-0.2-0.9-0.5-1.3-0.8
	c-0.8-0.5-1.7-1-2.5-1.6c-0.4-0.3-0.8-0.6-1.1-0.9c-0.1-0.1-0.2-0.2-0.2-0.3c-0.1-0.1-0.1-0.2-0.1-0.2c0-0.1,0-0.2,0.1-0.3
	c0-0.1,0.1-0.1,0.2-0.2c0.1,0,0.1-0.1,0.2-0.2c0.1-0.1,0.1-0.2,0.1-0.3c0,0,0-0.1,0-0.1c0,0,0-0.1,0-0.1c0-0.1-0.1-0.1-0.1-0.2
	c-0.1-0.2-0.3-0.4-0.5-0.6c-0.3-0.4-0.7-0.7-1.1-1.1c-0.7-0.7-1.5-1.3-2.4-1.8c-0.4-0.3-0.9-0.5-1.3-0.7c-0.5-0.2-0.9-0.4-1.4-0.5
	c-1.9-0.7-3.8-1.1-5.8-1.4c-2-0.3-4-0.3-6-0.3c-1,0-2,0.1-3,0.2c-0.2,0-0.5,0-0.7,0c-0.2,0-0.5,0-0.7-0.1c-0.5-0.1-0.9-0.3-1.4-0.4
	c-0.5-0.1-1-0.3-1.5-0.3c-0.5-0.1-1-0.1-1.5,0c-1,0.1-2,0.3-3,0.5c-1.9,0.5-3.8,1-5.8,1.6l-1.4,0.4c-0.5,0.1-1,0.3-1.4,0.4
	c-0.9,0.3-1.9,0.7-2.8,1.1c-0.5,0.2-0.9,0.4-1.3,0.7l-0.7,0.3l-0.3,0.2c-0.1,0.1-0.2,0.1-0.3,0.2c-0.4,0.3-0.8,0.6-1.2,0.9
	c-0.4,0.3-0.8,0.6-1.2,0.8c-0.2,0.1-0.4,0.2-0.7,0.3c-0.1,0-0.2,0.1-0.3,0.1l-0.4,0.1l-1.4,0.4c-1,0.3-1.9,0.6-2.8,0.9
	c-0.9,0.3-1.9,0.6-2.8,0.9c-0.5,0.2-0.9,0.3-1.4,0.5c-0.5,0.2-0.9,0.4-1.3,0.7c-0.9,0.5-1.7,1.1-2.5,1.7c-0.7,0.5-1.5,1.1-2.2,1.7
	L44,36.9c-1.8-0.4-4.1-1.9-6.2-1.9c3.2,0.6,5.4,2.3,8.5,3c2-1.2,5-1.2,5.7-3.6c4.7-0.5,7.4-3.2,11.5-4.4c-4.5-0.5-5.1,2.9-9.5,2.6
	c-0.4,0.9-1.5,1-2.9,0.9c-2,1.2-3.3,5.4-6.8,3.2c0.7-0.6,1.5-1.1,2.2-1.7c0.8-0.6,1.6-1.1,2.5-1.6c0.4-0.2,0.9-0.5,1.3-0.6
	c0.5-0.2,0.9-0.3,1.4-0.5c0.9-0.3,1.9-0.6,2.8-0.8l2.9-0.8l1.4-0.4l0.4-0.1c0.1,0,0.2-0.1,0.4-0.1c0.2-0.1,0.5-0.2,0.7-0.3
	c0.9-0.5,1.6-1.2,2.5-1.7c0.1-0.1,0.2-0.1,0.3-0.2l0.3-0.2l0.7-0.3c0.4-0.2,0.9-0.4,1.3-0.6c0.9-0.4,1.8-0.8,2.7-1.1
	c0.5-0.2,0.9-0.3,1.4-0.4l1.4-0.4c1.9-0.5,3.8-1.1,5.7-1.5c1-0.2,1.9-0.4,2.9-0.5c0.5,0,1,0,1.4,0c0.5,0.1,0.9,0.2,1.4,0.3
	c0.2,0,0.3,0.1,0.5,0.2c-2.8-0.2-5.2,0.4-5.2,0.4s3.9,0.2,5.4,0.4s3.5,1.2,4.5,1.9c0.9,0.7,2.1,2.1,3.3,3.6c1.2,1.5,2.9,2.1,4.5,2.2
	c1.6,0.1,1.6-0.4,1.1-1.2c-0.5-0.8-2.5-1.7-3.8-2.6c-1.3-0.9-1.6-2-2.4-2.8c-0.8-0.8-1.6-0.8-1.6-0.8c1.7,0.5,2.5,2.6,3.5,3.9
	c1,1.4,3.3,2,3.3,2s-1.5,0.4-2.6-0.3c-1.1-0.8-3.2-3.1-4-3.9c-0.7-0.7-1.2-1.8-3.4-2.4c1-0.1,1.9-0.1,2.9-0.2c2-0.1,3.9,0,5.9,0.2
	c1.9,0.3,3.9,0.7,5.7,1.4c0.5,0.2,0.9,0.3,1.4,0.5c0.4,0.2,0.9,0.4,1.3,0.7c0.8,0.5,1.6,1.1,2.3,1.8c0.4,0.3,0.7,0.7,1,1
	c0.2,0.2,0.3,0.4,0.4,0.6c0,0,0.1,0.1,0.1,0.1c0,0,0,0,0,0c0,0,0,0,0,0.1c0,0.1,0,0.1-0.1,0.2c-0.1,0.1-0.2,0.2-0.3,0.3
	c-0.1,0.1-0.1,0.3-0.1,0.4c0,0.1,0,0.2,0.1,0.3c0,0.1,0.1,0.1,0.1,0.2c0.1,0.1,0.2,0.2,0.3,0.3c0.4,0.4,0.8,0.6,1.2,0.9
	c0.8,0.6,1.7,1.1,2.5,1.6c0.2,0.1,0.3,0.2,0.5,0.3c-1.1-0.4-3.1-1.1-4.7-1.9c-2.3-1.1-5.3-2.9-5.3-2.9s1.2,0.9,2.2,1.6
	c1.1,0.7,3.9,2.2,3.1,2.2c-1.7,0-4.8-1.8-6-3c-0.9-0.9-2.5-1.5-3.1-1.8c0.8,0.5,3,2.2,4.1,3.1c1.2,1,2.3,2,5.6,3c3.3,1,5.8,1,5.8,1
	c0.1-0.2,0-0.3-0.1-0.4c0.2,0.1,0.4,0.2,0.7,0.3c1.8,0.8,3.8,1.3,5.7,1.7c0.5,0.1,1,0.2,1.4,0.4c0.5,0.1,0.9,0.3,1.4,0.5
	c0.9,0.4,1.8,0.8,2.6,1.3c0.4,0.3,0.8,0.5,1.3,0.8l0.6,0.4C126.2,40.7,126.4,40.8,126.6,40.9c0.8,0.6,1.4,1.5,1.6,2.4
	C128,42.3,127.4,41.5,126.6,40.9"/>
<path class="st2" d="M28,95.8c0-0.8-2.5,0.2,0.6-2.2c-3.5,1.1-3.1-0.2-1.3-1.6c1.9-1.4,0.9-5.4,2-6.4c1.1-1-1.3-2.1-1.3-2.4
	c0-0.4-3.1-1.8-3.1-2.5c0-0.7,2.5-3.8,3-4.1c0.5-0.3,2.6,0,2.5,3.1c0-0.1,0.1-0.1,0.1-0.2c0,0.1,0,0.2,0,0.3c2.5-1.1,2.2-5,5.3-5.4
	c-0.2-0.2-0.6-0.1-0.6-0.5c0.1-0.1,0.2-0.2,0.2-0.5c-0.1,0-0.2-0.1,0-0.2c0-0.1,0.1-0.2,0.2,0l0.5-0.3c0.6-0.4-0.5-0.4-0.6-0.6
	c0-0.7,0.8-0.6,1.1-1.1c0,0,0.3-0.6-0.1-0.5c-0.4,0.1-0.6-0.1-0.4-0.3v-0.3c0.7-1.1,2-2.1,1.2-3.8c0.2-0.4,0.7-0.6,0.9-1.1
	c0.3-0.3,0.8-0.5,0.9-1.1c-0.3-0.5-0.4-1.2-0.3-2.1c0.2-0.1,0.4-0.2,0.6-0.3c0.1-1-0.5-1.2-0.6-2c0.5-0.7,1.6-1.3,1.1-2.6
	c0.6-0.4,1.4-0.6,2.1-0.9c-0.2-0.9-1.6-0.7-2.3-1.2c0.3-0.3,0.9-0.1,1.4-0.2c-1.3-1-3.5-1.2-4.4-2.7c1.3,0.7,3,1.5,4.7,1.2v-0.2
	c-1.9-0.6-4-1-5-2.6c1.6,0.4,2.7,1.2,4.4,1.5c-1.6-1.7-3.9-2.7-4.8-5.1c1.6,1,3.1,2.2,5.3,2.6c-2.1-1.2-4-2.7-5.1-4.8
	c1.4,1.2,3,3,5,3c-2-1.5-4-3.7-4.4-6.3c1.1,2.6,3,4.2,5.7,5.1c-0.4-0.6-1-1.1-1.5-1.7c-0.1,0-0.2-0.1,0-0.2
	c-0.3-0.7-1.2-1.6-0.9-2.4c0.9,0.5,1.9,2.4,2.9,1.8c-0.4-0.8-1.7-1.6-1.8-2.3c0.4,0.2,0.7,0.4,1.2,0.5c-0.5-1.2-1.4-1-1.8-2.1
	c0,0.4-0.1,0.6-0.3,0.8c-0.8-0.4-1-1.3-1.5-2c-0.1,0.4,0.2,1.2-0.2,1.4c-0.7-0.6-1.3-1.3-2.3-1.5c-0.1,0.3,0.4,0.6,0,0.8
	c0-0.4-0.3-0.6-0.6-0.8c-0.2,0.4,0.3,0.7,0,0.8c-0.6-0.1-1.2-1-1.7-0.8c0.2,0.1,0.4,0.3,0.2,0.3c-0.9-0.3-2.2-0.9-3-0.8
	c0.5,0.6,1.3,0.8,1.8,1.4c-0.6,0.1-1.3-0.6-1.7-0.3c0.2,0.1,0.3,0.2,0.3,0.5c-0.6,0.2-1.1-0.4-1.4,0c0.7,0.2-0.2,0.3-0.3,0.6
	c0.3,0,0.5,0.1,0.5,0.5c-0.4,0.2-0.6-0.4-0.8,0c0.1,0.2,1,0.4,0.6,0.6c-0.6,0-1-0.3-1.5-0.5c-0.1,0.9,1.3,1.2,1.2,1.7
	c-1-0.5-2.1-1.5-3.5-1.1c1,0.2,2,0.3,2.4,1.1c-0.5,0.5-1.5-0.3-2,0.2c0.6,0.4,1.7,0.3,2,1.1c-0.3,0.1-0.9-0.2-0.9,0.2
	c0.2,0.2,0.9,0,0.8,0.6c-0.2,0-0.6-0.1-0.6,0.2c0.4,0.4,1.2,0.5,1.4,1.2c-0.2,0-0.6-0.1-0.6,0.2c0.7,0.5,1.5,0.8,2.4,1.1
	c-0.6,0.7,1,0.4,0.9,1.1c-0.5,0-1.1,0-1.2,0.3c0.4,0.4,1.5,0.2,1.7,0.9c-0.4,0.1-0.4-0.2-0.8-0.2c0.3,0.8,1.3,0.8,1.5,1.7
	c-0.4,0.2-0.6-0.4-0.8,0c0.6,0.5,2.1,0.7,1.8,1.7c0.4,0.2,0.8-0.4,0.9,0c0,0.6-0.8,1.1-0.5,1.5c0.1-0.2,0.2-0.5,0.6-0.5
	c0.1,0.9,0.1,1.8,0.5,2.4c0.1-0.4,0.2-0.8,0.5-1.1c-0.1,1.1-0.3,2-0.6,2.9c0.6,0,0.5-0.7,1.1-0.8c-0.1,0.1-0.3,1,0,1.1
	c0.1-0.3,0.1-0.8,0.3-0.9c0.5,0.7,0.7,2.5,0.6,3.3c0-0.5-0.5-0.5-0.8-0.8c-0.2,0.1,0,0.6-0.5,0.5c-0.1-0.4-0.2-0.7-0.5-0.9l-0.3-0.5
	c0,0.2,0,0.3-0.2,0.3c0.8,1.2,2.2,3.2,1.2,5.1c-0.1-0.4-0.2-0.9-0.6-1.1c0,0.2-0.3,0.2-0.3,0c-0.2-0.1-0.4-0.2-0.6-0.3
	c0.1,0.3,0.1,0.8,0.3,0.9c0-0.2,0-0.3,0.2-0.3c0,0.2,0.1,0.3,0.2,0.5c0.2,0.3,0.6,0.4,0.6,0.9c-0.3-0.1-0.5-0.5-0.6,0
	c0.5,0.5,0.8,2.3,0.5,2.7c0.4,1.1-1.4,2.3-0.7,1.6c0.7-0.7,0-1.6,0-1.6c0.1-0.4-0.3-0.3-0.3-0.6c-0.4-0.1-0.7-0.3-0.9-0.6
	c-0.3,0-0.4-0.1-0.5-0.3c0.4,0,1,0.1,1.1-0.3c-1.4-1.5-4.4-2.2-5.1-3.9c2,0.9,2.4,2.2,4.8,2.3c-0.9-1.7-3.1-2.2-4.4-3.5h0.6
	c-1.4-1.1-2.6-2.2-3.3-3.3c1.4,0,1.7,1.9,3,1.5c0.4,0.6,0.7,1.4,1.5,1.7c0.3-0.6,0.6,0.2,1.1,0.3c0-1.4-1.3-1.5-2-2.3
	c0.5-0.1,0.8,0.4,0.9-0.2c-0.7-0.6-1.6-0.9-2.4-1.4c0.4,0,0.9,0.1,0.9-0.3c-0.4-0.4-1.1-0.6-1.7-0.9c0.1-0.1,0.4-0.1,0.5-0.3
	c-1-0.6-2.6-1.7-2.3-2.7c-0.4-0.1-0.9-0.2-1.1-0.6c0.6-0.2,0-0.4,0-0.8c0.2-0.1,0.8,0.2,0.8-0.2c-0.5-0.5-1.1-0.8-1.7-1.2
	c0.4,0,0.9,0.1,0.9-0.3c-0.4-0.2-0.7-0.6-0.9-1.1c0.3-0.1,0.1-2.1-0.3-2.6c-0.6-3.4,0-8.4,2.4-10.3c-0.6,0.2-1,0.5-1.4,0.9
	c0.2-0.2,0.3-0.4,0.5-0.5c0.7-0.6,1.4-1.1,2.2-1.5c0.8-0.4,1.7-0.7,2.5-0.9c0.9-0.2,1.8-0.3,2.7-0.4c0.4,0,0.9,0,1.3,0
	c0.4,0,0.9,0.1,1.3,0.1c0.9,0.1,1.8,0.3,2.6,0.6c0.9,0.3,1.7,0.6,2.6,0.9c0.8,0.3,1.7,0.7,2.5,1.1c-0.8-0.5-1.6-0.9-2.4-1.3
	c-0.8-0.4-1.7-0.7-2.5-1c-0.9-0.3-1.8-0.5-2.7-0.7c-0.9-0.2-1.9-0.2-2.8-0.1c-0.9,0.1-1.8,0.2-2.7,0.4c-0.9,0.2-1.8,0.5-2.6,1
	c-0.8,0.4-1.6,1-2.2,1.7c-0.5,0.5-0.9,1.1-1.2,1.7c-1.6,2.7-1.2,7.3-1.4,11.4c0.1,0.3,0.3,0.6,0.5,0.9c-0.3,0-0.4,0.1-0.5,0.3
	c0.3,0.5,1.2,1.3,0.5,2c0.3,0.3,0.8,0.4,0.9,0.9c-0.1,0.3-0.3,0.6-0.3,1.1c0.5,0.2,0.8,0.5,0.9,0.9c-1.3,2.5,1.9,2.5,1.2,5.3
	c0.3,0.2,0.9,0.1,0.8,0.8c-0.4,0.5-0.2,0.7-0.3,1.5c0.3,0.1,0.5-0.5,0.6,0c-0.1,0.8-0.4,1.2-0.5,2c0.2,0,0.3,0,0.5-0.1
	c-0.2,1.4-0.7,4.8-1.7,6.3c-1.2,2-1.7,2.1-1.7,2.1s0.6,1.1,1.7,2c1.2,0.9-1.1,0.7-1.2,2.3s-2.2,2.7-1.7,3.8c0.4,1.2,2.1,1.6,1.4,3.1
	c-0.7,1.6-0.8,2-0.8,2.7c0.1,0.7,1.2-0.3,1.7-0.4c0.4-0.1-2.6,4.1-2,5c0.8-0.7,1,0,1,0s-2.2,3.9-1.4,6.4c0.4-0.2,0.5,0,0.5,0
	L28,95.8z M37.4,61.5L37.4,61.5c0.2,0.2,0.3,0.6,0.3,1.1C37.2,62.5,37.4,61.9,37.4,61.5"/>
<path class="st2" d="M126.7,55c0,0,0.2,0.4,0.5,0.4S127.5,55.1,126.7,55"/>
<path class="st2" d="M128.8,55.3c0,0-0.3-0.2-0.7-0.2c-0.4,0-0.5,0.4-0.5,0.4s0.3,0.2,0.8,0.1C128.9,55.5,128.8,55.3,128.8,55.3"/>
<path class="st2" d="M129.4,54.2c-0.6,0-0.6,0.8-0.6,0.8c1.1,0.4,1.4-0.2,1.4-0.2S130,54.2,129.4,54.2"/>
<path class="st2" d="M131.2,53.8c0.1-0.5-0.6-0.7-0.6-0.7s-0.5,0-0.5,0.5s0.8,0.6,0.8,0.6S131.1,54.3,131.2,53.8"/>
<path class="st2" d="M128,57c-0.1,0-0.5,0.1-0.5,0.5s0.3,0.7,0.3,0.7s0.4-0.4,0.4-0.6C128.3,57.4,128.2,57,128,57"/>
<path class="st2" d="M129.4,58.3c0.4-0.3,0.1-1-0.2-1.1c-0.3-0.1-0.3-0.1-0.3,0.4C128.8,58.1,129.4,58.3,129.4,58.3"/>
<path class="st2" d="M126.6,57c0,0-0.3,0.5,0.4,0.7C127.2,57.6,126.9,57,126.6,57"/>
<path class="st2" d="M131.5,51.6c-0.1-0.7-0.2-1.3-0.5-2c-0.4-1.3-1.1-2.5-2-3.4c0.4,0.5,0.7,1.1,1,1.7c0.3,0.6,0.5,1.2,0.7,1.8
	c0.4,1.3,0.5,2.6,0.4,3.9c-0.1,1.3-0.3,2.6-0.7,3.9c-0.2,0.6-0.4,1.2-0.6,1.8c-0.3,0.2-0.9,0.6-1.8,0.8c-0.3,0.1-0.5,0.1-0.7,0
	c-0.2-0.2-0.3-0.3-0.5-0.5c0.1-0.4,0.1-1,0.1-1.3c-0.1-0.5-0.9-0.9-1.3-1.1c-0.1-0.2-0.1-0.5-0.2-0.7c-0.3-1.9,1-3.6,1.5-4.9
	c0.5-1.4,1.8-3.9,2.1-4.6c0.3-0.7-0.7-1.5-0.9-1.7c-0.1-0.2,0-1.9,0-1.9s-0.3,0.1-0.8,0.6c0,0-1.4,2.8-3,2.7c-1.6-0.1-2.1-2.3-3.8-3
	c-1.7-0.8-3.4-0.1-3.7,0.5c-0.3,0.6-0.5,0.9-1,1c-0.4,0.1-1.1-0.2-1.7-0.8c-0.4-0.4-0.1-0.9,0-1.1c-0.2,0.3-0.9,0.9-1.9,0.7
	c-1.2-0.2-2.3-1.1-2.3-1.1s0.1,1.2,1.1,1.8c1,0.6,2.6,0.6,3.3,1.6c0.7,1,0.7,1.6,1.8,2.3c1.1,0.7,1.2,1.2,2.9,1.8
	c1.6,0.5,4,1.9,4.5,3.8c0.2,0.6,0.2,1.1,0.2,1.6c0,0-1.1,1.4-2.2,1.5c-1,0.1-1.1,0.4-1.6,0.5c-0.5,0-0.7,0.5-1.6,0.6
	c-1,0-1.2-0.3-0.9-0.6c0.4-0.3,1-0.5,0.2-1.4c-0.4-0.3-1.2,0.4-0.9,0.5c0.2,0.1,0.4,1.1-0.3,1c-0.7-0.1-1.6,0.2-1.6,0.8
	c0.6,0,1.3-0.3,1.3,0c0,0.3-0.2,0.4-0.7,0.4c-0.5,0.1-1.3,0.6-1.5,0.7c-0.2,0.1-2.2,0.3-2.3,0c-0.1-0.3,0.7-0.3,0.8-0.4
	c0.1-0.1-0.4-0.2-0.2-0.5c0.2-0.3,0.7-1.3,0.1-1.1c-0.6,0.1-1.3,0.5-1,0.6c0.4,0.1-0.3,0.6-0.1,0.8c0.2,0.2,0,0.9-0.7,0.7
	c-0.7-0.2-2.6-0.9-2.3-1.2c0.3-0.3,1.4-0.4,1.4-0.6c0-0.2-0.7-1.4-1.5-1.2c-0.7,0.2-0.7,1.9-1.3,1.7c-0.6-0.2,0-0.6-0.2-0.8
	c-0.2-0.2-0.8,0-1.2-0.3c-0.4-0.3-0.5-0.9-1.9-1s-3.5,0.3-4.5,0c-1-0.2-3.6-1-5.1-0.1C93.6,57,94.6,57.2,95,57
	c0.4-0.2,0.1,1.1-0.5,1.3c-0.6,0.2,0.1,0.6,0.7,0.7s0.4,0.7,0.2,1c-0.2,0.2,1-0.1,0.8,0.3c-0.9,0.5-2.9,1.7-3.7,2
	c0.6-0.2,2.2-0.6,2.2-0.3c0,0.3-0.8,1-1.4,1c-0.5,0-1.5,0.4-1.9,1.1c-0.4,0.7-1.3,1.5-1.4,1.7c-0.1,0.2-1.8,1-2,1.1
	c-0.2,0,1.7-0.2,1.3,0.4c-0.5,0.5-2.4,0.8-2.7,1.3c-0.2,0.4,0.7,0.3,1.4,0.2c0.7-0.1,0.7,0.4,0.1,0.6c-0.7,0.3-1.7,1.1-1.2,1.2
	c0.5,0.1,1.3-0.1,1.3,0.1c0,0.2-1.9,1.6-1.6,2c0.4,0.4,1.7-0.4,1.6,0c-0.1,0.4-1.2,0.7-0.6,1.8c0.4,0.7,0.6,0.6,1,0.2
	c-0.5,1.3-0.8,2.6-0.9,4.1c-0.3,1.8,0.1,4.4,0.3,4.8c0.2,0.5,0.1,1.8,0.4,2.1c0.2,0.2-0.4,1.9-0.6,2.4c0.3-0.3,1.5-1,2-1
	c0.4,0,0,0.9-0.3,1.5c0.3-0.3,0.9-0.5,1.2-0.5c0.4,0,0,1.5,0,1.5s0.4-0.2,1.1-0.2c0.7,0-0.3,1.1-0.3,1.1s1.1-0.4,1.6-0.4
	c0.5,0,0,0.7,0,0.7s1-0.3,1.6-0.3c0.7,0-0.5,0.8-0.2,1.1c0.2,0.3,1.8-0.4,2.5-0.2c0.7,0.2-0.4,1.3-0.3,1.5c0.1,0.2,1.3-0.5,1.8-0.5
	c0.5,0-0.7,1.2-0.6,1.3c0.1,0,2.7-0.4,3.2-0.4c0.5,0,0,1.1,0,1.1s0.7-0.2,1-0.2c0.3,0-0.5,0.9-0.4,1.1c0.2,0.2,1.2-0.6,1.5-0.5
	c0.3,0-0.3,0.9-0.1,1.1c0.2,0.2,1.4-0.4,2.2-0.2c0.8,0.1,0.5,1.1,0.8,1.2c0.3,0.1,0.7-0.7,1-0.6s0.4,0.8,0.5,0.8
	c0.1,0,0.5-0.8,0.8-0.7c0.3,0,0.4,0.9,0.7,0.8c0.2-0.1,0.2-0.7,0.3-0.9c0.1,0,0.1,0,0.2,0c0.3,0.4,0.8,1.5,0.8,1.3
	c0-0.1,0.2-0.6,0.4-1.1c0.2,0,0.5,0.1,0.7,0.1c0.2,0.3,0.4,0.6,0.6,0.7c0.2,0.1,0.3-0.3,0.5-0.7c0.3,0,0.5,0,0.7,0
	c0.2,0.4,0.5,1,0.6,1.1c0.1,0.1,0.2-0.6,0.3-1.1c0.4,0,0.8,0,1.1-0.1c0.2,0.5,0.2,1.1,0.4,1.1c0.3,0,0.3-1,0.5-1
	c0.2,0,0.7,1.7,0.9,1.8c0.2,0.1,0.5-2,1.1-1.8c0.6,0.2,0.1,2.4,0.6,2.5c0.5,0.1,0.9-2.6,1.3-2.5c0.4,0.1,1,1.9,1.1,2.5
	c0.1,0.6,0-3,0.3-3.1c0.4-0.1,0.8,1.3,1,1.4c0.2,0.1,0.1-2,0.4-2.1c0.4-0.2,1.2,1.6,1.2,1.8c0.1,0.3-0.3-2.1,0-2.1
	c0.3,0,1,1.7,1.1,1.9c0.1,0.2-0.3-2.4,0-2.4c0.3,0,1.3,2.1,1.5,1.9c-0.8-1.3-0.8-1.8-0.6-2.1c0-0.1,0.2-0.1,0.3-0.2
	c0.2,0,0.3,0,0.4,0c-0.3,0.3-0.6,0.8-0.4,1.3c0.1,0.2,0.3,0.5,0.6,0.8c0.8,0.9,2,2.1,1.8,4.4c-0.1,0.9-0.3,1.7-0.5,2.4
	c-0.1-0.4-0.3-1.1-0.6-1.1c-0.4,0,0.5,2.3,0,2.2c-0.5,0-1.1-1.4-1.1-1.4s0.4,2.5,0.3,3.2s-1-1.3-1-1.3s0.4,2.4,0.2,2.4
	c-0.2,0,0.1,1.6-0.6,1.5c-0.7-0.1-1.5-1.5-1.9-1.1c-0.5,0.4-0.3,1.1-0.6,1.4c-0.3,0.3-0.9-0.2-1.5,0c-0.6,0.2,0.2,1.9-0.4,1.9
	c-0.6,0-1.4-1.8-1.4-1.8s0.2,1.4-0.1,1.4c-0.3,0.1-0.9-0.7-0.9-0.7s0,2.3-0.6,2.2c-0.7-0.1-2.5-3.4-2.5-3.4s1.2,3.2,0.7,3.1
	c-0.6,0-2.1-1.9-1.8-2.8c-0.2,0.1,0.2,2.7-0.2,3.2c-0.4,0.5-0.8-0.7-1.3-0.7c-0.5,0-0.5,2.8-1.5,2.6c-1-0.1-1.3-2.6-1.1-3.8
	c-0.3,1-1.7,3.3-2.7,3.3c-1.1-0.1,0.4-4.6,0.4-4.7c0-0.1-1.1,2.2-1.4,2.2c-0.3,0-0.4-1.7-0.6-1.7c-0.2,0-0.6,2.7-2.8,2
	c-0.3-0.2,0.5-1.4,0.5-1.4s-1.3,1.2-1.9,0.8c-0.6-0.4-0.2-1.6,0.6-3.2c0,0-1.6,2.4-2.8,1.8c-2.3-0.6-0.5-3.3-0.5-3.3
	c-2,2.6-2.4,2.1-2.3,1.8c0.6-0.7,0.3-1.6,0.9-2.2c1.2-1.3,0.8-1.9,0.8-1.9s-2.1,1.8-2.5,1.3c-0.4-0.5,0.7-2.5,0.7-2.5
	s-1.9,0.6-2.7,0.3c0,0,0.1-1.4,0.9-1.8c-0.4-0.1-0.8,0.6-1.2,0c-0.4-0.2,0.5-1.5,0.8-1.5c0,0-3.3,0.1-3.4-0.3
	c-0.2-0.4,0.3-1.2,0.9-1.3c-0.8,0-2.9,0.1-3-0.2c-0.1-0.4,0.2-1.1,0.7-1.2c0.2,0-5-0.2-4.7-1.6c-0.1-0.5,1-2,4-0.1
	c0.1,0.1-0.7-2.1-4.6-2.2c-3.9-0.2-3.5-0.2-3.5-0.5c0-0.3,0.7-0.7,2.7-0.6c2.1,0.1,3.5,0.6,3.5,0.6s-1.1-1.2-3.5-1.3
	c-2.4-0.1-2.6,0-2.6-0.2c-3.3,1.1-3-2.2-5.4-3.1c0,0,0,0,0,0c0,0,0,0,0,0c0,0-0.1,0.1-0.1,0.1c0,0-0.1-0.1-0.1-0.1
	c-0.3,0.6-0.6,1.1-0.9,1.6c-0.5,0.8-0.8,1.6-0.8,1.9c0,0.4,0.4,0.6,0.8,0.5c0,0,0.1,0,0.1,0c-0.1,0.4-0.4,0.6-0.4,1
	c0,0.1-0.1,0.2-0.1,0.2c0,0.4,0.9,0.4,1.3,0.9c0,0.8-1,0.8-1.1,1.6c0,0,0,0,0,0c0,0-0.1,0.1-0.1,0.1c0.6,0.1,1.7,0.7,1.5,1.8
	c-0.2,1.2-2.4,1.7-3,1.5c-0.7-0.2-2.8,3.4-3.6,4.3c0.6-0.8,0-2.1,0.1-2.2c0,1.2-2.2,3-2.7,2.8c-0.7-0.3,1.7-2,0-1
	c-1.7,1-2.5,0-2.5,0c2,0.2,4.9-3.5,5.9-4.6c1.1-1.1,2.6-2.6,2.5-2.9c0,0,0,0,0,0c0-0.1,0.1-0.1,0.1-0.2c-0.7-0.1-1.5-0.2-1.8-0.8
	c0.1-1.5,1.4-2.9,1.4-4.1c0.1-0.2,0.1-0.3,0.1-0.3c0,0,0,0-0.1-0.1c0-0.1,0-0.2-0.1-0.2c-2.1,0.9-4,1.8-5.5,3.3
	c-1.1,0.9-1.5,1.6-1.5,2c0,0,0,0,0,0c0,0,0,0,0,0c0,0,0,0,0,0c-0.1,0.5,0.7,0.3,1.2,0.4c-1.2,0.9-2.4,2.4-2.8,4.2
	c-0.4,1.2-0.5,2.2-0.8,2c-0.3-0.3-0.3-0.8-0.3-0.8s-1.2,2.1-0.8,0.3c0.4-1.8,1.7-4.3,1.7-4.3c-0.5,0.9-4.1,5.4-5,5.8
	c-0.9,0.4,0.1-1.7,0.6-1.8c0.3-0.1,0.5-0.4,0.6-0.8c0-0.1,0.1-0.3,0.1-0.4c0.1-0.4,0.1-0.8,0.1-1.1c0-0.3,0-0.6,0.1-0.9
	c0.2-0.2,0.4-0.2,0.4-0.2c0-0.1-0.1-0.2-0.1-0.4c0.1,0,0.1-0.1,0.2-0.1c-0.3-2.2,0.7-3,1.4-4.2c0.1-0.1,0.2-0.1,0.2-0.1
	c-0.1,0-0.1,0-0.1,0c0-0.1,0.1-0.1,0.1-0.2c-0.2-0.4-0.8-0.4-1-0.8c0-0.3,0.1-0.6,0.3-1c0.6-0.9,2.5-2.1,3-3.2
	c0.2-0.4,0.2-0.7,0.1-0.8c0-0.1,0-0.3,0-0.4c-1-0.1-1.4,0.5-2.3,0.5c-0.3-0.2-0.5-0.5-0.5-1.1c0-0.3-0.1-0.5-0.2-0.7
	c-0.1-0.3-0.2-0.5-0.4-0.7c-0.5-0.4-1.2-0.4-1.9-0.2c-0.5,0.1-1.1,0.4-1.6,0.9c-1,0.7-1.8,1.6-2.1,2.1c-0.2,0.5-0.3,1-0.4,1.4
	c-0.2,1.2,0.2,3,1.1,4.5c0.1,0.2,0.3,0.4,0.4,0.7c0,0.1,0.1,0.1,0.1,0.2c0,0,0,0.1,0.1,0.1c0,0,0,0.1,0,0.1c0.6,1.5,0.8,3.2,1.1,4.6
	c0.1,0.3,0.1,0.6,0.2,0.8c0.5,1.6-1,3.2-1.4,3.9c-0.4,0.7-0.9,0.7-0.7-0.8c0-0.2,0-0.5,0-0.6c0-0.3,0-0.6,0.1-0.9
	c-0.3-0.3-1.1-0.1-1.4-0.5c-0.2-0.4-0.3-0.9-0.3-1.5c0.1-0.3,0.3-0.5,0.6-0.7c0.3-0.1,0.5-0.4,0.6-0.6c0.2-0.2,0.3-0.5,0-1
	c-1,0-1,1-1.8,1.2c-0.7,0-1.3,0.3-1.7,0.6c-0.8,0.5-1.7,1.5-1.8,1.3c0-0.2,0.2-0.8,0.2-0.8s-1.1,1-1.4,0.7c-0.2-0.3,1.1-1.8,0.6-1.4
	c-0.5,0.4-1.2,1.1-1.7,0.6c-0.2-0.2-0.2-0.4,0-0.6c0-0.1,0.1-0.1,0.1-0.2c0.2-0.2,0.4-0.4,0.4-0.4s0.1-0.3,0.3-0.7
	c0.2-0.3,0.4-0.6,0.6-0.9c0.4-0.3,1.2-0.3,1.7-0.6c0.2-0.1,0.3-0.3,0.3-0.4c0.1-0.1,0.1-0.2,0.1-0.3c-0.6-0.4-1.7-0.2-2.1-0.8
	c0.1-0.2,0.1-0.4,0.2-0.6c0.6-0.5,1.6-1.2,1.8-1.4c0.1-0.2,0.2-0.3,0.1-0.4c0.1-0.1,0.1-0.2,0.1-0.3c-0.7-0.4-2.1,0.4-2.5-0.4
	c0.2-0.4,0.9-0.9,0.8-1.1c0-0.1,0-0.2,0-0.3c-1.2,0.1-2.1,0.6-2.7-0.2c0-0.2,0.1-0.4,0.2-0.5c0.1-0.1,0.1-0.1,0.2-0.2
	c0.6-0.4,1.6-1.5,1.3-1.8c0,0,0,0,0,0c0-0.1,0-0.2,0.1-0.3c-2.1,0.2-4,0.4-5.3,1.4c-0.2,0.1-0.3,0.3-0.5,0.4
	c-0.1,0.1-0.2,0.2-0.3,0.3c0,0,0,0.1,0,0.1c-0.1,0.3-0.1,0.5-0.1,0.8c0,0.7-0.8,1.2-1,1.4c-0.2,0.2-0.6,0.1-0.5-0.1
	c0.7-1.7,0.5-1.9,0.1-2c-0.3,0-0.8,0.4-1.5,1.3c-0.7,0.8-0.5,0.2-0.7-0.1c-0.2-0.3-0.2-0.7,0.2-1.3c0.3-0.5,0.7-1.3,0.7-1.9
	c0-0.1,0.1-0.3,0.1-0.4c-0.6-0.6-1.6,0.4-2,0c0-0.1,0.1-0.1,0.1-0.2c0.3-0.4,0.8-0.8,1-1c0.5-0.4,1.6-1.1,1.8-1.8
	c0,0,0.1-0.1,0.1-0.2c0-0.1-0.1-0.1-0.1-0.2c0-0.5-0.2-1.4-0.4-2.2c-0.1-1.3-0.1-2.7-0.4-3.9c0-0.2-0.1-0.4-0.2-0.5
	c0-0.1-0.1-0.1-0.1-0.2c0,0-0.1,0.1-0.1,0.1c-0.4,0.1-1.2,1.1-1.8,2.1c-1.1,1.4-2.1,2.9-3.2,4.2c-0.2,0.2-0.4,0.4-0.6,0.5
	c-0.3,0.2-0.5,0.5-0.4,0.7c0,0,0,0.1-0.1,0.1c0,0,0.1,0,0.1,0c0,0.2,0.2,0.3,0.4,0.2c0.5-0.1,1.7-0.2,2.1,0.3c0,1-0.3,2.1-0.5,3.3
	c-0.1,0.3-0.2,0.6-0.3,0.8c-0.4,0.9,0.2,2.5,0.6,2.6c0.4,0.2,1.1-0.4,1.6-0.8c0.5-0.5,1.1-0.9,1,0c-0.1,0.8-1,1.7-1,1.7
	s0.8-0.1,1.4-0.5c0.5-0.5,1.9-2.6,2.2-2.5c0.4,0-0.6,1.9-0.5,2.1c0.1,0.2-0.2,0.8-0.2,1.7c0,0.4,0,0.7,0.2,0.8c0,0.1,0,0.1,0.1,0.2
	c0.1,0,0.2,0,0.2,0c0.1,0,0.3,0,0.4,0c0.6-0.2,0.2,1,0.4,1.8c0.1,0.8,2.3,0.3,3.1,0.3c0.3,0,0.4,0.1,0.4,0.3c-0.2,0.3-0.4,0.6-0.5,1
	c-0.1,0.1-0.1,0.2-0.2,0.3c-0.5,0.6-0.6,2.1,0.4,2.6c0.7,0.3,1.5-0.6,2-1.2c0.1-0.1,0.3-0.2,0.4-0.4c0,0,0.1,0,0.1,0
	c0.2,0.3-0.6,1.5-0.4,1.7c0.1,0.2,0.7-0.4,1.1-0.2c0.4,0.2-0.8,1.4-0.6,1.7c0.2,0.3,1.3-0.8,1.3-0.8c0.1,1-0.9,2.3-0.9,2.3
	c1.5-1.4,2.4-2.8,2.4-2.8c-1,2.2-0.6,4.6-0.5,4.5c0.2-0.7,1-1.6,1.8-2.3c0.6,1.3,1.7,2.4,2.8,2.6c0.1,0.8,0.2,1.5,0.3,1.5
	c0.2,0,2.1-3.1,2.1-3.1c-0.2,1.4-0.4,5.8,0.2,3.9c0.6-1.9,4.7-8.4,4.7-8.4c-1.8,3-1.9,5.8-2,6.7c0.3-0.7,1.5-2.3,2-2.3
	c0.5,0,0.1,2.5-0.1,3.4c0.3-0.6,1.2-1.9,1.5-1.9c0.3,0-0.2,2.1,0,2.2c0.1,0.1,1.4-1.2,2.3-1.8c-0.7,0.9-1.2,2-2.1,2.7
	c-0.3-0.5-0.5-1-1.2-1.1c-1.1,0.5-1.5,2.5-0.8,3.6c3-0.3,5.4-2.5,4.9-5.6c0.5,0.3,0.4,1.9,0.4,1.6c0-0.4,1.3-2.7,2.1-2.7
	c0.7,0-0.2,2.4,0,2.2c0.3-1.7,2.7-6.1,3.6-6.7c-1.1,1.7-2.9,4.2-2.2,6.3c1,0.4,1.8,0.1,2.9-0.2c0.6,0.1,0.7,0.7,1.4,0.8
	c0.7-0.6,0.7-2,0.8-3.2c0.1,0,0.3,0,0.5,0c1.6,0,2.5-3.2,2.5-3.2c0.2,0.2,0.3,0.3,0.3,0.6c0,1.7-1.6,2.7-1.9,4.2
	c-0.1,0.3-0.2,0.5-0.2,0.6c0.2,0.7,1.5-0.7,1.9-0.2c0.1,0.2,0.2,0.4,0.2,0.6c-0.3,1.4-1.4,2.5-1.8,3.5c-0.4,0.5-0.7,0.7-0.5,0.6
	c0.6-0.4,1.9-1.1,1.9-1.1c0,0.6,0.3,2.7,1.5,5.6c1.3,2.9,3.8,3.6,4,3.5c0.2,0-0.2-0.4-1.2-1.6c-0.9-1.2-1-2.8-0.2-3.5
	c0.8-0.7,3,2.8,3,2.4c0-0.7-0.9-3.2-0.5-3.7c0.4-0.5,3.1,2.3,3,2.2c-1.5-2.9-0.6-3.5-0.6-3.5s1.4,2.8,4.6,4.8c3.1,2,5.4,1.8,5.4,1.8
	c-0.8-0.3-1.3-1.4-1.7-1.8c-0.4-0.4,1.3,0,2.1,0.4c0.8,0.3,0.9,0,0.1-0.7c-0.9-0.7-1.3-1.7-1-1.7c0.4,0,1.6-0.2,1.2-0.2
	c-0.4,0-0.8-0.5-0.4-0.4c0.4,0.1,1.6-0.2,1.6-0.2c-0.8,0.6-0.8,2.6-0.7,2.2c0-0.4,1.7-1.1,2.4-1.1c0.8,0,0.2,2.9,0.2,2.9
	c0.2-1,2.1-1.9,2.5-1.8c0.5,0.1,0.5,1.9,0.7,2.1c0.2,0.2,0.4-0.2,1.3-0.9c0.9-0.7,1-0.6,2.3,0.4c1.3,0.9,2.8,1,2.8,1
	c-0.4-0.4-0.6-1.7,0.4-1.7c0.9,0,2,0.8,2,0.8c0.2-0.5,1.5-1.5,1.5-1.5c2.6,0.9,3.7,0.5,3.7,0.5c-0.6-1-0.1-1.8-0.1-1.8
	c1.7,0.7,3.4,0.5,3.4,0.5c-0.7-1.4,0.2-2.1,0.2-2.1c1.9,1.2,3,0.4,3,0.4c-1.2-0.8-1-2.2-1-2.2c1.6,0.3,3.4,0.1,3.9,0
	c0,0,0.1,0.1,0.1,0.1l0.2-0.2c0,0-0.8-1-0.8-2.5c0-0.8,0.2-1.5,0.5-2.4c0.3-1,0.7-2.2,0.9-3.8c0.3-2.4-1.1-3.8-1.9-4.7
	c-0.3-0.3-0.5-0.5-0.5-0.7c-0.2-0.6,0.5-1.1,0.5-1.1l-0.1-0.1c0,0,0,0,0,0c0.1-0.1,0.1-0.2,0.1-0.3c0.5-1.1,0.5-2.3-2.9-4.3
	c-3.3-1.9-8.1-6.6-9.7-11.5c-0.1,0-0.1,0-0.1,0s-0.1-0.3-0.1-0.7c-0.2-0.8-0.3-1.6-0.3-2.4c0-2.9,1.4-4.9,2.9-6.1l2.8-1.6
	c0.4-0.3,0.9-0.5,1.3-0.8c4.8-2.5,6.3-4.2,6.3-4.2c0.7-0.4,1.3-0.8,1.7-1.3c0,0,0,0,0,0c0,0,0,0,0,0c0.1-0.1,0.1-0.1,0.2-0.2
	c0,0,0,0,0,0c0.1-0.2,0.3-0.4,0.4-0.6c0.2-0.3,0.3-0.6,0.5-0.9c0.3-0.6,0.5-1.2,0.8-1.9c0.4-1.3,0.7-2.6,0.8-3.9
	C131.6,53,131.6,52.3,131.5,51.6 M73,99.1L73,99.1C73,99,73,99,73,99.1C73,99,73,99,73,99.1 M72.9,101L72.9,101
	c-0.1,0.6-0.1,1.3-0.1,1.7C72.7,102.3,72.8,101.6,72.9,101 M96.3,111.2L96.3,111.2c-0.2,0.1-1.5-0.2-1.6,0.2c-0.1,0.4,0.1,1,0.6,1.4
	c0.2,0.2-0.9,0.3-1.6,0c-0.7-0.3-0.6-0.3-0.5-0.1c0.1,0.2,0.7,0.9,0.2,0.7c-0.5-0.2-2.3-1.1-3-2.7c-0.2,0.1-0.2,0.7-0.6,0.6
	c-0.3-0.1-0.8-1-0.8-1s1.6,0.1,2.8-0.4c1.2-0.6,1.6-0.9,1.8-0.9s0.5,0.7,0.3,1.3c-0.2,0.6-0.3,0.8,0.2,0.8c0.5,0,1.6-1.3,2-1.3
	C96.4,109.6,96.4,110.8,96.3,111.2 M129.1,60.9L129.1,60.9c0.1-0.1,0.1-0.2,0.2-0.2C129.2,60.7,129.2,60.8,129.1,60.9
	C129.1,60.9,129.1,60.9,129.1,60.9"/>
<path class="st2" d="M92.6,62.3c-0.1,0-0.1,0-0.1,0C92.5,62.3,92.5,62.3,92.6,62.3"/>
<path class="st2" d="M87.7,88.2c0,0.1,0,0,0.1-0.1C87.7,88.1,87.7,88.2,87.7,88.2"/>
<path class="st2" d="M89.3,89c0,0,0.1-0.2,0.2-0.4C89.4,88.7,89.3,88.8,89.3,89"/>
<path class="st2" d="M112.7,37.1c0,0,2.7,1,4.1,1.4c1.4,0.4,3.6,0.9,3.6,0.9s-2.3-1-4.1-1.6C114.5,37.2,112.7,37.1,112.7,37.1"/>
<path class="st2" d="M103.5,40.2c0.4-0.1,0.9-0.2,0.9-0.2s-3.1-0.5-6,1c-2.9,1.5-4.3,3.3-4.8,4.1c0,0,2.2-2.3,4.5-3
	c2.2-0.7,6.2-1,7.4-1.1c1.2-0.2,2-0.7,2-0.7s-1.8-0.3-2.6,0C104,40.6,103.1,40.4,103.5,40.2"/>
<path class="st2" d="M90.9,48.1c0.2-0.8,0.8-1.4,0.8-1.4s0.1-0.8,0.5-1.1c0.4-0.3,1.2-1,1.2-1s-1.4,0.2-3.2,1.1
	c-1.9,0.9-3.8,3.1-4.8,4.5c-1,1.4-1.8,3.6-1.8,3.6s3.4-6.7,6.5-6.9c0.5,0.1,0.4,1.5-0.1,2.3c-0.5,0.8-1.4,3-1.6,3.7
	c-0.2,0.8-1.3,2.1-1.6,3.3c-0.3,1.1-0.2,2.8-0.2,2.8s0-3.3,2.9-4.8c0,0-0.1-1.6,0.2-2.3C90,51.3,90.7,48.9,90.9,48.1"/>
<path class="st2" d="M89,48.5c0,0-2.3,0.5-3,2.8c-0.8,2.4-1.1,4.5-1.3,6.2c0,0,1.2-3,1.4-3.9c0.3-0.9,1.1-2.6,1.7-3.6
	C88.6,49,89,48.5,89,48.5"/>
<path class="st2" d="M79.4,58.8c1.5-1.2,2.9-2.4,2.8-3.5c-0.2-1.2-0.3-1.6-0.8-1.6s-2,1.1-2.4,1.6c-0.4,0.5-1.2,1.3-1.2,1.9
	c0,0.6-1.7,1.9-1.2,2.3C76.6,59.5,77.9,60,79.4,58.8"/>
<path class="st2" d="M90.7,57.9c0,0-1.7,0.4-2.2,0.6c-0.5,0.3-0.2,0.3-0.5,1.1c-0.3,0.8-1.2,1.7-1.5,1.8c-0.4,0.1,0.5-1.7-0.3-2.2
	c-0.8-0.5-1.7,0.5-3,1.4c-1.3,1-0.8,3.4-0.7,3c0-0.5,0.7-2.1,2-3.2c1.3-1.1,1.2-0.2,0.9,0.1c-0.4,0.3-1.3,1.6-1.1,1.7
	c0.2,0.1,0.1,0.4,0,0.8c-0.1,0.5-1,2.1-1.4,2.9c-0.4,0.9-0.1,2.3,0,2.4c0,0,1.1-1.8,1.4-2.6c0.3-0.8,1.7-1.8,1.6-2
	c0-0.2,0-0.7,0.8-1.3c0.8-0.5,3.7-1.4,3.7-1.4s-1.2-0.5-1.7-0.9C88.2,59.7,90.7,57.9,90.7,57.9"/>
<path class="st2" d="M76.7,64.7c0,0-0.1,0-0.2-0.1c0.2-0.6,0.3-1.3-0.2-1.4c-0.7-0.2-3.3-0.3-3.7,0.8c-0.5,1.1-0.2,1.7-0.4,2
	c-0.2,0.3-0.7,0.1-1.3-0.5c-0.6-0.5-0.7-0.9,0.3-1.3c0.9-0.3,3-1.5,3.3-2.3c0.3-0.9-0.3-2.5-0.2-3.8c0.1-1.3,1.6-2.5,2.2-3
	c0.5-0.4,1.6-2.5,3.4-3.3c-1.3,0.4-3.7,1.3-4.3,2.5c0,0,0.3,0.6-0.7,1.5c-1.1,0.9-1.2,1.2-1.9,1.8c-0.7,0.6-3.1,2.6-3.5,4.6
	c-0.4,2-1,3.4-0.3,3.7c0.7,0.3,1.5,0.1,1.8,0.8c0.4,0.7-0.2,1.4-0.8,1.8c-0.6,0.4,1.9-1.1,2-1.2c0.1-0.1-0.3,1.6,0.1,5
	c0.5,3.3,0,3.9,0.9,5.3c0.1,0.2,0.4-1.3,0.6-2.6c0.3,0,0.9-0.7,1.2-0.9c0.4-0.3,0.6-1,0.3-1.2c-0.3-0.2-0.4-0.6-0.3-1.1
	c0.1-0.5,0.4-1,0-0.9c-0.3,0-0.6,0.1-0.9,0.3c0.1-0.7,0.2-1.4,0.2-1.8c0.4,0,0.8-0.2,1.2-0.5c0.8-0.6,0.8-1.3,0.8-1.3
	s-0.5-0.9-0.3-1.3C76.3,66,76.9,64.9,76.7,64.7"/>
<path class="st2" d="M75.3,76.5c-0.5,0-1.1,1.1-1.1,1.8s0.3,1.2,0.5,1.3c0.2,0.1,0.5-0.3,0.9-0.7c0.4-0.4,0.3-0.7,0-1
	C75.3,77.6,75.8,76.5,75.3,76.5"/>
<path class="st2" d="M76.5,81c0-0.5-0.6-0.8-0.9-0.8c-0.4,0-0.6,0.6-0.6,1.5c0.1,0.9,0.9,1.1,1.1,1.1c0,0,0.1-0.7,0-1
	C76.1,81.4,76.5,81.5,76.5,81"/>
<path class="st2" d="M67.2,77c0.5,0,0.8-0.4,1-0.7c0.1-0.1,0.2-0.3,0.3-0.4c0,0,0,0,0,0c0.2-0.2,0.1-0.4-0.1-0.5
	c-0.2-0.4-0.2-0.9-0.3-1.4c0-0.2,0-0.3-0.1-0.3c0-0.1-0.1-0.2-0.2-0.2c-0.4,0.4-1,0.5-1.4,0.9c0,0.1,0,0.2,0,0.3
	c-0.1,0.2-0.2,0.4-0.2,0.6C66.1,76.2,67.2,77,67.2,77"/>
<path class="st2" d="M66.8,72.7c1.4,0.2,1.9-1,2-1.5c0,0,0,0,0,0c0,0,0,0,0,0c0,0,0,0,0,0c0-0.2-0.2-0.5-0.3-0.8
	c0-0.2-0.1-0.4-0.1-0.7c0.1-0.2,0.2-0.5,0.1-0.7c0-0.1,0.1-0.3,0.1-0.4c-1.9-0.5-2.8,1-2.7,2.5c0,0,0,0.1,0,0.1
	C65.9,72.5,66.8,72.7,66.8,72.7"/>
<path class="st2" d="M66.6,65.8c0.4-0.5-0.2-1.3,0-2.1c0-0.1,0-0.1,0.1-0.2c0.1-0.1,0.1-0.3,0.2-0.5c0.2-0.5,0.4-0.8,0.3-1.1
	c0,0,0-0.1,0-0.1c0,0-0.1,0-0.1,0c-0.1-0.2-0.5-0.2-0.9,0c-1.3,0.3-2,1.6-2.2,3c-0.1,0.1-0.1,0.3-0.2,0.5c-0.4,1.1,0.3,1.9,0.3,1.9
	C65.7,67.6,66.2,66.3,66.6,65.8"/>
<path class="st2" d="M69.4,58.8L69,59.4c0,0,0.6-0.3,0.7-0.3c0.1-0.1,0.8-0.2,0.7-0.4c-0.1-0.2,0.3-0.3,0.5-0.3
	c0.2,0,0.2-0.2,0.1-0.4c0.1,0,0.1-0.1,0.2-0.1c-0.1,0-0.1-0.1-0.2-0.1c0.2-0.1,0.6-0.2,0.4-0.2c-0.1,0-0.2-0.1-0.2-0.2
	c0.1-0.1,0.1-0.2,0-0.4c0,0,0-0.1,0-0.1c0.2-0.3,0.9-0.5,1-0.8c0.1-0.4,0.8-0.8,1-0.8c0.2,0,0-0.6-0.1-0.9C72.9,54,73.6,54,74,54
	s0.3-0.6,0-0.8c-0.2-0.1,0.5-0.5,1-0.7c-0.8,0.3-1.9,0.4-1.9,0.6c0,0,0,0.1,0.1,0.1c-0.1,0.1-0.2,0.5-0.3,0.5c0,0.1,0,0.1,0,0.2
	c-0.1,0-0.1,0-0.1,0c-0.1,0-0.1,0.5,0,0.8c-0.2,0.1-0.5,0.1-0.7,0.3c-0.2,0.1-0.1,0.3-0.1,0.6c-0.2,0.4-0.8,0.5-1.1,0.8
	c-0.3,0.2-0.4,0.5-0.3,0.6c0,0,0,0,0.1,0c-0.2,0.1-0.3,0.2-0.5,0.4c-0.1,0-0.2,0.1-0.2,0.1s0,0.1,0.1,0.1c-0.1,0.1-0.2,0.2-0.2,0.3
	c0.1,0,0.1,0,0.2,0c-0.1,0.1-0.3,0.2-0.3,0.2s0.2,0,0.4,0.1c-0.3,0-0.5,0.1-0.6,0.3c0,0,0,0,0,0c-0.1,0-0.2,0-0.2,0.1
	C69.1,58.8,69.4,58.8,69.4,58.8 M73.2,53.3L73.2,53.3c0.2,0.2,0.4,0.3,0.5,0.3c0.1,0-0.4,0.2-0.7,0.2C73,53.8,73.1,53.5,73.2,53.3
	 M72.8,55.1L72.8,55.1c0,0.1,0,0.1-0.1,0.1C72.7,55.1,72.7,55.1,72.8,55.1C72.8,55.1,72.8,55.1,72.8,55.1"/>
<path class="st2" d="M74.9,52.5c0.1,0,0.2-0.1,0.3-0.1C75.2,52.4,75.1,52.5,74.9,52.5"/>
<path class="st2" d="M64.1,60.1c1.3,0,1.2-1.8,1.8-2.4c0.6-0.6,1-0.2,2.1-0.2c1.1,0,1.4-1.2,1-1.9c-0.1-0.1-0.2-0.2-0.3-0.3
	c0.1,0,0.2-0.1,0.2-0.1c-1.8-0.1-3.2-0.2-4.2,0.5c0.8-0.2,1.8-0.2,2.6-0.2c-0.6,0.2-1.2,0.5-1.6,0.7c-0.5,0.3-0.9,0.5-1.2,0.9
	c-0.1,0.1-0.2,0.2-0.2,0.3c-0.2,0.3-0.4,0.6-0.5,1C63.2,59.6,64.1,60.1,64.1,60.1"/>
<path class="st2" d="M69.3,41.9c-0.5,0.4-1.5,1-2.9,1.1c-1.5,0.1-3.8,1.5-4.3,2c-0.2,0.2,1.8-0.6,2.5-0.6c0.7,0,1.1,0.6,0.9,1.2
	c0,0.1,0,0.1-0.1,0.2c-0.1,0.2-0.2,0.3-0.3,0.5c-0.2,0.2-0.3,0.4-0.3,0.4s1.4,0,1.6,0c-0.1,0.1-0.2,0.1-0.2,0.2
	c-0.1,0.1-0.2,0.2-0.2,0.2c0.1,0.1,1.1,0,1.1,0.4s-0.1,1.8,0.2,2.2c0.3,0.4,1.3,0.6,1.3,0.6s0-0.1-0.1-0.2c0,0,0.1,0,0.1,0
	c-0.3-0.8-0.1-1.7,0.3-2.3c0,0,0,0-0.1,0c0,0,0,0,0.1-0.1c0.3-0.3,0.5-0.5,0.6-0.6c0.2-0.1,0.3-0.3,0.4-0.4c0.1-0.1,0.1-0.2,0.1-0.2
	s0,0,0,0c0-0.1,0.1-0.2,0.1-0.2c-0.4-0.1-1.2,0.2-1.4-0.2c0-0.1,0-0.1,0-0.2c0.1-0.2,0.2-0.5,0.3-0.8c0,0,0,0,0-0.1
	c0.2-0.5,0.6-1.1,1.1-1.5c0.9-0.8,1.6-1.3,2.6-1.3c0.1,0.3,0.3,0.6,0.5,0.7c-0.5,0-1.6,0.1-1.7,0.7c-0.1,0.6,1.9,0.9,2.1,1.4
	c0.2,0.5-1.9-0.4-2.1,0c-0.2,0.4,0.6,0.7,1,1.2c0.4,0.5-0.5,0.4-0.9,0.5c-0.4,0-0.2,0.4-0.2,0.7c-0.4,0.2-0.7,0.5-0.9,0.9
	c-0.1,0.1-0.1,0.1-0.1,0.2c-0.1,0.5,0.4,0.6,0.8,1c0.1,0.1,0.1,0.1,0.2,0.2c0,0.1,0.1,0.1,0.1,0.2c0.2,0.5,0.4,1.1,0.3,1.3
	c0,0.2,0.1,0.5,0.6,0.5c0.5,0,0.9,0.4,0.9,0.4c0.1-0.2-0.1-0.4-0.4-0.6c0,0,0.1,0,0.1,0c-0.2-0.2-0.5-0.5-0.8-0.5
	c0,0-0.1-0.1-0.1-0.1c0,0-0.1-0.1-0.1-0.2c0.3-0.8-0.5-1.4-0.7-2.2c0-0.3,0.7-0.2,1.1,0.1c0.3,0.2,0.4,0,0.2-0.4c0,0,0.1,0,0.1-0.1
	c-0.1-0.4-0.3-0.7-0.6-0.8c-0.2-0.3,0-0.3,0.8-0.3c0.9,0,0.5-0.9,0.1-1.1c-0.4-0.3,1.1,0.4,1.8-0.1c0.7-0.4-0.2-1.1-0.7-1.4
	c-0.5-0.3,2.1,0,2.3-0.4c0.3-0.3-1-1-1.2-1.2c-0.3-0.2,0.7-0.2,2.8,0.1c1.4,0.2,3.8,0.1,5.3,0.1c0.7,0,1.3,0,1.3,0s0.1,0,0.2-0.1
	c0.2,0,0.4,0,0.6-0.1c0.9-0.2,1.7-0.8,2.3-1.1c0.6-0.4,2.1-1,2.6-1.1c0.5-0.2,0.9-0.8,1.1-0.6c0.3,0.2,0.4,0.7-0.1,1
	c-0.4,0.2-3.2,1.7-3.7,2c-0.4,0.3-3.3,2.6-3.7,2.6c0,0-0.1,0.2,0.2,0.3c0,0-2.1,0.3-2.6,0.3c0,0,1.1,0.4,1,0.7
	c-0.1,0.2-1.6,0.5-2.5,0.6c0.7,0.1,2.1,0.3,1.7,0.5c-0.4,0.2-2.2,0.6-3.5,0.6s-2.1,0-2.1,0s1.9,0.3,1.8,0.6
	c-0.1,0.3-1.6,0.7-2.7,0.7c-1.1,0-2,0-2,0s1,0.5,1.8,0.5c0.8,0,1.7-0.2,1.4,0.1c-0.3,0.3-1.1,0.6-1.1,0.6c-0.2,0.3-0.5,0.6,0.5,0.5
	c1-0.1,4.3,0,4.3,0s3.5-2,4.2-2.1c0,0,0.3-2,3.7-3.5c0,0-1.3-0.1-0.6-0.4c0.7-0.3,2.2-1.3,3.7-2c1.5-0.8,2-1.5,2-1.5s-1.2,0-0.8-0.4
	s3.2-1.7,6.7-2.6s10.9-0.7,10.9-0.7s-2.5-0.8-7.7-0.5c-5.2,0.2-7.6,1.3-8.6,1.3c0,0-1.8,0.2-3.3-0.5c-1.5-0.6-6-3.2-7.6-3.7
	c-1.6-0.5-4-0.9-5.8,0.3c-1.9,1.2-5.1,4.6-5.9,5c-0.8,0.4-2.2,0.5-2.8-0.6c-0.6-1.1,0.1-1.7,0.4-1.8c0.3-0.1-0.4-0.6-0.6-1
	s0-0.5,0.5-0.5c0.5,0,1-0.1,0.6-0.5c-0.4-0.4-1-1.3,0.6-1.3c1.6-0.1,2-0.2,2-0.2s-1.7-1-1-1.4s2.3-0.3,2.3-0.3s-0.5-0.7,0-0.7
	c0.5,0,2.4-0.1,3.5,0.3c0.1,0-1-0.9-0.9-1c0.1-0.1,2-0.1,2.6,0.3c0.2,0.1-1-0.9,0.1-0.7c1.1,0.2,2.1,0.5,3.3,1
	c0.4,0.2-1.4-1.6-3.6-2.3C76.1,28.9,75,29,73.6,29c-1.4,0.1-2.6,0.2-2.4,0.6c0.2,0.4,0.7,0.7-0.3,0.8c-0.9,0.1-3.4,0.6-3.3,0.9
	c0.1,0.4,1.2,0.5,1.2,0.8c0,0.2-2.3,0.7-2.3,1.1c0.1,0.4,0.8,0.6,0.8,0.8c-0.1,0.1-1.8,0.5-1.6,0.8c0.2,0.3,0.9,0.5,0.9,0.7
	c-0.1,0.2-1,0.9-1,1.3c0.1,0.5,1.2,0.3,1.1,0.7c0,0.4-0.7,1.3,0.6,2.6C68.8,41.5,69.8,41.5,69.3,41.9"/>
<path class="st2" d="M95.8,38.3c0,0,1.4-0.8,2.1-1.5c0.8-0.8,1.1-1.4,1-1.8c-0.1-0.4-0.7-0.7-1.1-0.7c-0.4,0-0.4,0.5-0.4,0.9
	c0.1,0.4,0.3,1-0.4,1.6S95.7,38,95.8,38.3"/>
<path class="st2" d="M70.3,26.5c-0.6,0.1-1.3,0-1.8,0c-0.5,0-1.7,0.2-1.8,0.4c-0.2,0.1,1.9,0,2.7,0.3c0.8,0.4,0.2,0.6,0.2,0.6
	s1.5-0.1,2.1,0.1c0.6,0.2,0.8,0.4,0.8,0.4s-0.4-0.7-0.2-0.9c0.2-0.2,1.3,0,1.5-0.2c0.2-0.2,0.5-0.5,1-0.4c0.5,0.1,1.7,1,2.1,1.5
	c0.1,0-0.3-0.7,0.1-0.5c0.4,0.2,1.5,1,1.6,1.2c0,0,0-0.6,0.2-0.4c0.2,0.2,0.8,0.7,0.9,1c0,0-0.1-0.8,0.1-0.7
	c0.2,0.1,0.7,0.9,0.8,1.2c0,0,0-0.4,0.2-0.4c0.2,0.1,0.8,0.9,1,1.3c0,0-0.1-0.5,0.2-0.3c0.2,0.2,1,0.9,1.7,1.8s1.5,1.8,2,2.7
	c0,0,0-0.8-0.2-1.2c-0.2-0.4,0.6-0.7,0.8-1c0.2-0.4,0.4-1.2,0.6-1.2c0.2,0-0.1,1.9,0.5,2.1c0.3,0.1,0.7-1,0.9-0.9
	c0.2,0.1,0.1,1.6,0.6,1.6c0.3,0,0.9-1.1,1.3-1c0.3,0.1-0.2,1,0.2,1.1c0.3,0.1,0.6-0.8,0.8-0.7c0.3,0.1,0.2,0.9,0.5,0.9
	c0.3,0,1.3-1.4,1.5-1.3c0.3,0,0.3,0.4,0.3,0.4s0.2-0.9-0.1-0.9c-0.3,0-1.3,1-1.6,0.9c-0.3-0.1,0.8-2.3,0.5-2.5s-0.8,1.7-1.4,1.7
	c-0.5-0.1,0.2-2.5-0.3-2.5c-0.5,0-1.1,2.6-1.5,2.4c-0.3-0.2,1-3.6,0.3-3.8c-0.7-0.2-1.2,2.2-1.5,2.2c-0.3,0-0.5-2.2-0.8-2.2
	c-0.3,0-0.7,2.4-1.1,2.4c-0.3,0,0.2-2-0.2-2c-0.4,0-0.4,2.6-0.7,2.6c-0.4,0-0.5-2.1-0.9-2.1c-0.4,0-0.5,1.7-0.7,1.7
	c-0.2,0,0-1.2-0.3-1.2S82.8,31,82.7,31c-0.1,0-0.3-1-0.5-1c-0.1,0-0.2,0.3-0.3,0.3s0-0.8-0.2-0.9c-0.2,0-0.3-0.5-0.4-0.6
	c-0.1-0.1-0.6,0.1-0.7-0.1c0-0.2-0.1-0.8-0.3-0.8c-0.2,0-0.1,0.4-0.3,0.3s-0.2-0.8-0.5-0.8s-0.2,0.3-0.5,0.1s-0.3-0.5-0.5-0.5
	c-0.2,0-0.2,0.4-0.3,0.4c-0.2,0-0.5-0.5-0.7-0.6c-0.2,0,0.1,0.4-0.1,0.4c-0.2,0-0.8-1-1-1c-0.2,0,0,0.4-0.8,0.3
	c-0.8-0.2-1.7-0.4-2.2-0.7c-0.5-0.2-1.5-0.3-2.3-0.2c-0.8,0-1.1,0.4-1.1,0.4S70.9,26.4,70.3,26.5"/>
<path class="st2" d="M94.9,24.8c0.6,0.5,4,2.3,4,2.3c1.4,0.8,2.6,0.9,4,1.5c1.4,0.7,3.2,1.8,3.1,1.6c-0.8-1.6-2.2-2.8-5.1-4.2
	c2.2,1.2,2.5,2.3,2.5,2.3s-2.9-1.4-4.3-2C97.8,25.7,95.8,25.1,94.9,24.8"/>
<path class="st2" d="M114.4,43.1c0.1-0.1,0.1-0.1,0.1-0.1S114.4,43,114.4,43.1"/>
<path class="st2" d="M96.8,28.5c-0.1-0.1-0.2-0.1-0.2-0.1C96.5,28.4,96.6,28.4,96.8,28.5"/>
<path class="st2" d="M93.7,96.8c0.1,0,0.2,0,0.1,0C93.8,96.7,93.7,96.8,93.7,96.8"/>
<path class="st2" d="M84.4,89.5C84.4,89.5,84.4,89.5,84.4,89.5C84.4,89.5,84.4,89.5,84.4,89.5"/>
<path class="st2" d="M110.3,110.2c0-0.1,0-0.1,0-0.1C110.4,110.1,110.4,110.2,110.3,110.2"/>
<path class="st2" d="M60,105.7c0,0.1,0,0,0.1-0.3C60,105.5,60,105.6,60,105.7"/>
<path class="st2" d="M62,106.4c-0.1,0.1-0.1,0.2-0.1,0.3C61.9,106.8,62,106.7,62,106.4"/>
<path class="st2" d="M79.9,52.1c0.4-0.1,0.7-0.2,0.7-0.2C80.3,51.9,80.1,52,79.9,52.1"/>
<path class="st3" d="M85.5,41.7c0,0,0.1-0.8-0.4-2.1c-0.5-1.3-2.6-2.9-4.7-3.1c-2.1-0.1-3.9,1.4-4.4,2.4c-0.5,1.1-0.3,1.5-0.3,1.5
	s2,1,4.7,1C83.2,41.6,85.5,41.7,85.5,41.7"/>
<path class="st4" d="M113,61.5c0,0,0,2.7-0.2,4.7c-0.2,2-1.1,3.6-1.5,3.6c-0.4,0-1.1-3.2-1.5-4c-0.4-0.8-2.2-4.3-2.1-4.5
	c0-0.1,1.9-0.8,3.2-0.7C112.2,60.6,113,61.5,113,61.5"/>
<path class="st2" d="M111.3,69.9c-0.3,0-0.5-0.8-1-2.4c-0.2-0.7-0.4-1.4-0.6-1.6l-0.2-0.3c-1.7-3.3-2-4.1-1.9-4.3
	c0.1-0.2,1.8-0.8,3-0.8c0.1,0,0.2,0,0.2,0c1.3,0.1,2.1,0.9,2.1,1l0,0v0c0,0,0,2.7-0.2,4.7C112.7,68.1,111.8,69.8,111.3,69.9
	L111.3,69.9z M107.8,61.3L107.8,61.3c0,0.2,0.6,1.6,1.9,4.1l0.2,0.3c0.2,0.3,0.4,1,0.6,1.7c0.3,0.9,0.7,2.3,0.9,2.3v0.1v-0.1
	c0.3,0,1.3-1.6,1.4-3.6c0.2-1.8,0.2-4.3,0.2-4.6c-0.1-0.1-0.8-0.8-2-0.9c-0.1,0-0.2,0-0.2,0C109.4,60.6,107.9,61.2,107.8,61.3"/>
<path class="st4" d="M109.7,91.3c0,0,1.1-2.9,1.3-4.6c0.2-1.7,0.4-4.6,0.8-4.7c0.5-0.1,2.1,1.5,2.7,4c0.7,2.5,0.6,4.9,0.4,5.6
	c-0.3,0.7-1.4,1.3-2.6,1.3C111,92.8,109.7,92.3,109.7,91.3"/>
<path class="st2" d="M112.4,93c-0.1,0-0.1,0-0.2,0c-1.3-0.1-2.6-0.6-2.6-1.7v0l0,0c0,0,1.1-2.9,1.3-4.6c0-0.3,0.1-0.7,0.1-1
	c0.2-2.2,0.4-3.6,0.8-3.7c0,0,0,0,0.1,0c0.6,0,2.1,1.7,2.8,4.1c0.7,2.5,0.7,4.9,0.4,5.6C114.7,92.4,113.6,93,112.4,93 M109.8,91.3
	L109.8,91.3c0,1,1.3,1.5,2.5,1.5c0.1,0,0.1,0,0.1,0c1.1,0,2.2-0.6,2.4-1.2c0.3-0.7,0.3-3-0.4-5.5c-0.6-2.4-2.2-4-2.6-4c0,0,0,0,0,0
	c-0.3,0.1-0.5,2.2-0.7,3.6c0,0.4-0.1,0.7-0.1,1C110.8,88.3,109.8,91.1,109.8,91.3"/>
<path class="st4" d="M120.9,89.6c0,0,1-2.7,1.2-4.4c0.2-1.6,0.3-4.3,0.8-4.4c0.5-0.1,2,1.4,2.6,3.8c0.6,2.4,0.6,4.6,0.4,5.3
	c-0.2,0.7-1.3,1.3-2.5,1.2C122.2,91.1,120.9,90.6,120.9,89.6"/>
<path class="st5" d="M120.9,89.6c0,0,1-2.7,1.2-4.4c0.2-1.6,0.3-4.3,0.8-4.4c0.5-0.1,2,1.4,2.6,3.8c0.6,2.4,0.6,4.6,0.4,5.3
	c-0.2,0.7-1.3,1.3-2.5,1.2C122.2,91.1,120.9,90.6,120.9,89.6z"/>
<path class="st2" d="M123.5,91.2c0,0-0.1,0-0.1,0c-1.2-0.1-2.5-0.6-2.5-1.6v0l0,0c0,0,1-2.7,1.2-4.3c0-0.3,0.1-0.6,0.1-1
	c0.2-2.1,0.4-3.4,0.7-3.5c0,0,0,0,0.1,0c0.6,0,2,1.6,2.6,3.9c0.6,2.4,0.6,4.6,0.4,5.3C125.7,90.7,124.6,91.2,123.5,91.2 M121,89.7
	L121,89.7c0,0.9,1.2,1.4,2.3,1.4c0,0,0.1,0,0.1,0c1,0,2-0.5,2.3-1.2c0.2-0.7,0.3-2.9-0.4-5.2c-0.6-2.3-2-3.8-2.5-3.8c0,0,0,0,0,0
	c-0.3,0.1-0.5,2.1-0.6,3.4c0,0.3-0.1,0.7-0.1,1C122,86.8,121.1,89.4,121,89.7"/>
<path class="st5" d="M123.5,91.2c0,0-0.1,0-0.1,0c-1.2-0.1-2.5-0.6-2.5-1.6v0l0,0c0,0,1-2.7,1.2-4.3c0-0.3,0.1-0.6,0.1-1
	c0.2-2.1,0.4-3.4,0.7-3.5c0,0,0,0,0.1,0c0.6,0,2,1.6,2.6,3.9c0.6,2.4,0.6,4.6,0.4,5.3C125.7,90.7,124.6,91.2,123.5,91.2z M121,89.7
	L121,89.7c0,0.9,1.2,1.4,2.3,1.4c0,0,0.1,0,0.1,0c1,0,2-0.5,2.3-1.2c0.2-0.7,0.3-2.9-0.4-5.2c-0.6-2.3-2-3.8-2.5-3.8c0,0,0,0,0,0
	c-0.3,0.1-0.5,2.1-0.6,3.4c0,0.3-0.1,0.7-0.1,1C122,86.8,121.1,89.4,121,89.7z"/>
<path class="st4" d="M125.7,60.5c-0.8,0-3,0.7-3,0.7s0.5,1.6,0.9,3.2c0.4,1.6,0.3,5.4,0.7,5.4c0.4,0,1.3-0.9,2-2.9
	c0.7-2,1.3-5.5,1.3-5.5S127.5,60.6,125.7,60.5"/>
<path class="st5" d="M125.7,60.5c-0.8,0-3,0.7-3,0.7s0.5,1.6,0.9,3.2c0.4,1.6,0.3,5.4,0.7,5.4c0.4,0,1.3-0.9,2-2.9
	c0.7-2,1.3-5.5,1.3-5.5S127.5,60.6,125.7,60.5z"/>
<path class="st2" d="M124.3,69.9C124.3,69.9,124.3,69.9,124.3,69.9c-0.3,0-0.4-0.7-0.5-2.5c-0.1-1.1-0.1-2.3-0.3-3
	c-0.4-1.5-0.8-3.1-0.8-3.2l0-0.1l0.1,0c0.1,0,2.2-0.8,3-0.7c1.8,0.1,1.9,0.9,1.9,0.9l0,0l0,0c0,0-0.6,3.6-1.3,5.6
	C125.6,68.9,124.8,69.9,124.3,69.9 M122.8,61.3L122.8,61.3c0.1,0.3,0.5,1.7,0.8,3.1c0.2,0.7,0.3,1.9,0.3,3c0.1,1,0.1,2.3,0.3,2.4
	l0,0c0.4,0,1.2-0.9,1.9-2.8c0.7-1.9,1.2-5.3,1.3-5.5c0-0.1-0.2-0.7-1.8-0.8C125,60.6,123.2,61.2,122.8,61.3"/>
<path class="st5" d="M124.3,69.9C124.3,69.9,124.3,69.9,124.3,69.9c-0.3,0-0.4-0.7-0.5-2.5c-0.1-1.1-0.1-2.3-0.3-3
	c-0.4-1.5-0.8-3.1-0.8-3.2l0-0.1l0.1,0c0.1,0,2.2-0.8,3-0.7c1.8,0.1,1.9,0.9,1.9,0.9l0,0l0,0c0,0-0.6,3.6-1.3,5.6
	C125.6,68.9,124.8,69.9,124.3,69.9z M122.8,61.3L122.8,61.3c0.1,0.3,0.5,1.7,0.8,3.1c0.2,0.7,0.3,1.9,0.3,3c0.1,1,0.1,2.3,0.3,2.4
	l0,0c0.4,0,1.2-0.9,1.9-2.8c0.7-1.9,1.2-5.3,1.3-5.5c0-0.1-0.2-0.7-1.8-0.8C125,60.6,123.2,61.2,122.8,61.3z"/>
<path class="st2" d="M80.9,40.6c-0.1-0.1-0.1-0.2-0.1-0.3c-0.1,0.1-0.2,0.1-0.3,0.1c-0.2,0-0.4-0.1-0.4-0.3c0-0.2,0.2-0.3,0.4-0.3
	c0.2,0,0.3,0.1,0.4,0.2c0-0.1,0.1-0.3,0.1-0.3s-0.5-0.7-1.4-0.4c-0.9,0.2-0.4,1.3-0.4,1.3l1.7,0.2C80.9,40.9,81.1,40.8,80.9,40.6"/>
<path class="st6" d="M80.9,40.6c-0.1-0.1-0.1-0.2-0.1-0.3c-0.1,0.1-0.2,0.1-0.3,0.1c-0.2,0-0.4-0.1-0.4-0.3c0-0.2,0.2-0.3,0.4-0.3
	c0.2,0,0.3,0.1,0.4,0.2c0-0.1,0.1-0.3,0.1-0.3s-0.5-0.7-1.4-0.4c-0.9,0.2-0.4,1.3-0.4,1.3l1.7,0.2C80.9,40.9,81.1,40.8,80.9,40.6z"
	/>
</svg>
