<?xml version="1.0" encoding="utf-8"?>
<!-- Generator: Adobe Illustrator 17.0.0, SVG Export Plug-In . SVG Version: 6.00 Build 0)  -->
<!DOCTYPE svg PUBLIC "-//W3C//DTD SVG 1.1//EN" "http://www.w3.org/Graphics/SVG/1.1/DTD/svg11.dtd">
<svg version="1.1" id="Слой_1" xmlns="http://www.w3.org/2000/svg" xmlns:xlink="http://www.w3.org/1999/xlink" x="0px" y="0px"
	 width="26.4px" height="26.4px" viewBox="0 0 26.4 26.4" style="enable-background:new 0 0 26.4 26.4;" xml:space="preserve">
<style type="text/css">
	.st0{fill:#010202;}
	.st1{fill:#DEA108;}
	.st2{fill:#F8DC4B;}
	.st3{fill:none;stroke:#F2C340;stroke-width:1.929;stroke-linecap:round;stroke-linejoin:round;stroke-dasharray:1.964,5.892;}
	.st4{opacity:0.28;}
	.st5{clip-path:url(#SVGID_2_);fill:#FFFFFF;}
	.st6{fill:#C99308;}
	.st7{opacity:0.16;}
	.st8{clip-path:url(#SVGID_4_);fill:#FFFFFF;}
	.st9{fill:#FFFFFF;}
	.st10{font-family:'MyriadPro-Bold';}
	.st11{font-size:18.6537;}
</style>
<path class="st0" d="M26.4,13.2c0,7.3-5.9,13.2-13.2,13.2C5.9,26.4,0,20.5,0,13.2C0,5.9,5.9,0,13.2,0C20.5,0,26.4,5.9,26.4,13.2"/>
<path class="st1" d="M25.6,12.9c0,6.9-5.6,12.5-12.5,12.5c-6.9,0-12.5-5.6-12.5-12.5C0.7,6,6.3,0.4,13.2,0.4
	C20.1,0.4,25.6,6,25.6,12.9"/>
<path class="st2" d="M25.2,13.3c0,6.8-5.5,12.3-12.3,12.3c-6.8,0-12.3-5.5-12.3-12.3C0.7,6.5,6.1,1,12.9,1
	C19.7,1,25.2,6.5,25.2,13.3"/>
<circle class="st3" cx="12.9" cy="13.3" r="11.3"/>
<g class="st4">
	<g>
		<defs>
			<rect id="SVGID_1_" x="1.3" y="2" width="23.2" height="22.5"/>
		</defs>
		<clipPath id="SVGID_2_">
			<use xlink:href="#SVGID_1_"  style="overflow:visible;"/>
		</clipPath>
		<path class="st5" d="M21.4,4.4L3.4,21C3.7,21.4,4,21.7,4.3,22l18-16.7C22,5,21.7,4.7,21.4,4.4"/>
		<path class="st5" d="M24.5,9.1c-0.3-1-0.8-1.9-1.4-2.7L5.3,22.9c0.8,0.6,1.7,1.2,2.6,1.6L24.5,9.1z"/>
		<path class="st5" d="M1.3,17.3c0.4,1,0.8,2,1.4,2.9L20.6,3.7C19.7,3,18.8,2.4,17.8,2L1.3,17.3z"/>
	</g>
</g>
<path class="st6" d="M23.2,13.3c0,5.7-4.6,10.3-10.3,10.3S2.6,18.9,2.6,13.3C2.6,7.6,7.2,3,12.9,3S23.2,7.6,23.2,13.3"/>
<path class="st1" d="M22.7,13.3c0,5.4-4.4,9.8-9.8,9.8s-9.8-4.4-9.8-9.8c0-5.4,4.4-9.8,9.8-9.8S22.7,7.8,22.7,13.3"/>
<g class="st7">
	<g>
		<defs>
			<rect id="SVGID_3_" x="3.3" y="3.9" width="19.1" height="18.8"/>
		</defs>
		<clipPath id="SVGID_4_">
			<use xlink:href="#SVGID_3_"  style="overflow:visible;"/>
		</clipPath>
		<path class="st8" d="M3.3,15.4c0.2,1.1,0.7,2.1,1.3,3.1L18.7,5.4c-0.9-0.7-1.9-1.2-3-1.5L3.3,15.4z"/>
		<path class="st8" d="M19.6,6.1L5.2,19.4c0.3,0.3,0.5,0.6,0.8,0.9L20.4,7C20.2,6.6,19.9,6.3,19.6,6.1"/>
		<path class="st8" d="M22.5,11c-0.2-1-0.7-2-1.2-2.9L7.1,21.2c0.8,0.6,1.8,1.1,2.8,1.4L22.5,11z"/>
	</g>
</g>
<path class="st9" d="M20,1.2c-0.2,2.7-0.6,3-3.1,3.2C19.4,4.6,19.8,5,20,7.6c0.2-2.7,0.6-3,3.1-3.2C20.6,4.2,20.2,3.8,20,1.2"/>
<text transform="matrix(1 0 0 1 8.6411 19.1422)" class="st6 st10 st11">L</text>
<text transform="matrix(1 0 0 1 8.7714 19.086)" class="st2 st10 st11">L</text>
<path class="st9" d="M10.1,16.7c-0.1,1.7-0.4,1.9-2,2c1.6,0.1,1.8,0.4,2,2c0.1-1.7,0.4-1.9,2-2C10.5,18.6,10.2,18.4,10.1,16.7"/>
</svg>
